<svg width="167" height="147" viewBox="0 0 167 147" fill="none" xmlns="http://www.w3.org/2000/svg">
<path d="M90.6126 141.149L51.8323 36.1077C50.3921 32.1987 52.375 27.8716 56.278 26.4293L117.684 3.68604C121.587 2.24368 125.907 4.22953 127.347 8.13853L166.128 113.18C167.568 117.089 165.585 121.416 161.682 122.858L100.276 145.601C96.3942 147.044 92.0528 145.058 90.6126 141.149Z" fill="#1B305D"/>
<path d="M85.6427 24.4941L84.0767 25.0742L90.5352 42.5624L92.1013 41.9823L85.6427 24.4941Z" fill="#3762AF"/>
<path d="M94.7438 49.1399L93.1777 49.72L99.6363 67.2082L101.202 66.628L94.7438 49.1399Z" fill="#3762AF"/>
<path d="M107.983 79.5971L106.221 80.2498L113.526 100.032L115.288 99.3791L107.983 79.5971Z" fill="#3762AF"/>
<path d="M118.295 107.476L116.533 108.129L123.838 127.911L125.6 127.258L118.295 107.476Z" fill="#3762AF"/>
<path d="M84.861 58.9587L83.2949 59.5388L92.7004 85.0065L94.2665 84.4264L84.861 58.9587Z" fill="#3762AF"/>
<path d="M98.1164 94.8484L96.5503 95.4285L105.956 120.896L107.522 120.316L98.1164 94.8484Z" fill="#3762AF"/>
<path d="M104.597 28.2887L109.063 18.5894C109.898 16.7499 112.069 15.9555 113.906 16.7917L123.611 21.2651C125.448 22.1012 126.241 24.2752 125.406 26.1147L120.94 35.835C120.105 37.6745 117.934 38.4688 116.097 37.6327L106.392 33.1593C104.555 32.3022 103.762 30.1282 104.597 28.2887Z" fill="#D8D8D8"/>
<path d="M109.899 42.6707L114.365 32.9505C115.2 31.111 117.371 30.3166 119.208 31.1528L128.913 35.6262C130.75 36.4623 131.543 38.6363 130.708 40.4758L126.241 50.196C125.407 52.0356 123.236 52.8299 121.399 51.9938L111.694 47.5204C109.857 46.6633 109.064 44.4893 109.899 42.6707Z" fill="#3762AF"/>
<path d="M166.086 113.011L127.285 7.97031C126.116 4.81385 123.048 2.89071 119.855 3.05794L160.096 112.008C161.098 114.746 159.72 117.777 156.986 118.781L91.6772 142.966C93.6392 145.496 97.0831 146.583 100.235 145.412L161.64 122.669C165.523 121.247 167.526 116.92 166.086 113.011Z" fill="#101D35"/>
<path d="M81.4499 139.204L2.38642 60.0208C-0.556541 57.0733 -0.556541 52.3073 2.38642 49.3599L48.6807 2.99548C51.6237 0.0480564 56.3825 0.0480564 59.3255 2.99548L138.389 82.1787C141.332 85.1261 141.332 89.8921 138.389 92.8396L92.0946 139.204C89.1517 142.151 84.3928 142.151 81.4499 139.204Z" fill="#1B305D"/>
<path d="M138.389 82.1997L59.3256 2.99559C56.9462 0.612573 53.3562 0.152697 50.5176 1.63686L132.524 83.7675C134.59 85.837 134.59 89.1606 132.524 91.2301L83.2867 140.542C86.1253 142.026 89.7153 141.566 92.0948 139.183L138.389 92.8188C141.311 89.9132 141.311 85.1262 138.389 82.1997Z" fill="#101D35"/>
<path d="M135.729 95.5197L46.0113 5.66602L36.2559 15.4363L125.974 105.29L135.729 95.5197Z" fill="#D8D8D8"/>
<path d="M131.975 91.7903L122.219 101.561L125.938 105.285L135.694 95.5151L131.975 91.7903Z" fill="#D8D8D8"/>
<path d="M73.4789 61.4237L37.8368 25.7275L31.4463 32.1277L67.0885 67.8238L73.4789 61.4237Z" fill="#3762AF"/>
<path d="M96.2902 123.131L71.7022 98.5054L62.3157 107.906L86.9037 132.531L96.2902 123.131Z" fill="#3762AF"/>
<path d="M25.1818 38.4114L23.8535 39.7417L47.4674 63.3913L48.7956 62.061L25.1818 38.4114Z" fill="#3762AF"/>
<path d="M19.0924 44.4876L17.7642 45.8179L61.3907 89.5105L62.719 88.1802L19.0924 44.4876Z" fill="#3762AF"/>
<path d="M13.0109 50.5865L11.6826 51.9167L20.892 61.1401L22.2203 59.8098L13.0109 50.5865Z" fill="#3762AF"/>
<path d="M53.3424 66.6128L52.0142 67.9431L67.4665 83.4188L68.7947 82.0885L53.3424 66.6128Z" fill="#3762AF"/>
<path d="M26.9269 64.5125L25.5986 65.8428L55.3078 95.5969L56.6361 94.2666L26.9269 64.5125Z" fill="#3762AF"/>
</svg>
