<svg width="114" height="114" viewBox="0 0 114 114" fill="none" xmlns="http://www.w3.org/2000/svg">
<circle cx="57" cy="57" r="57" fill="#E96565"/>
<path d="M72.4706 36.7061H41.1765C38.7075 36.7061 36.7059 38.7076 36.7059 41.1766V72.4708C36.7059 74.9398 38.7075 76.9413 41.1765 76.9413H72.4706C74.9397 76.9413 76.9412 74.9398 76.9412 72.4708V41.1766C76.9412 38.7076 74.9397 36.7061 72.4706 36.7061Z" stroke="white" stroke-width="2" stroke-linecap="round" stroke-linejoin="round"/>
<path d="M49 52.3529C50.8518 52.3529 52.353 50.8517 52.353 48.9999C52.353 47.1481 50.8518 45.647 49 45.647C47.1483 45.647 45.6471 47.1481 45.6471 48.9999C45.6471 50.8517 47.1483 52.3529 49 52.3529Z" stroke="white" stroke-width="2" stroke-linecap="round" stroke-linejoin="round"/>
<path d="M76.9412 63.5295L65.7647 52.353L41.1765 76.9413" stroke="white" stroke-width="2" stroke-linecap="round" stroke-linejoin="round"/>
</svg>
