<svg width="133" height="217" viewBox="0 0 133 217" fill="none" xmlns="http://www.w3.org/2000/svg">
<path fill-rule="evenodd" clip-rule="evenodd" d="M110.454 11.3283C110.441 5.1413 105.41 0.130301 99.212 0.142601L11.307 0.326402C5.12195 0.338602 0.102658 5.374 0.115258 11.5611L0.504159 197.051C0.516759 203.238 5.54796 208.261 11.746 208.237L99.651 208.053C105.837 208.041 110.855 203.005 110.843 196.818L110.454 11.3283Z" fill="#101C35"/>
<path fill-rule="evenodd" clip-rule="evenodd" d="M105.758 13.3337C105.746 7.40278 100.929 2.61068 94.995 2.62258L10.834 2.80048C4.91216 2.81238 0.107163 7.62818 0.119163 13.559L0.503562 193.382C0.515562 199.313 5.33296 204.105 11.267 204.093L95.428 203.915C101.35 203.903 106.155 199.076 106.143 193.157L105.758 13.3337Z" fill="#1B305D"/>
<path fill-rule="evenodd" clip-rule="evenodd" d="M101.12 169.57C101.134 174.165 97.954 178.024 93.671 179.056C93.148 179.183 92.626 179.268 92.074 179.296C91.848 179.324 91.622 179.338 91.396 179.338L67.469 179.395H64.953L24.363 179.48L20.971 179.494H17.989C13.706 179.508 10.06 176.737 8.74499 172.892C8.40599 171.917 8.22298 170.857 8.22298 169.768L8.16599 144.875V143.462L8.12399 125.213V124.379L8.08099 103.825V102.525L7.91199 23.3788C7.91199 17.9931 12.265 13.611 17.649 13.5969L91.043 13.4414C96.413 13.4414 100.794 17.7952 100.809 23.1809L100.837 37.2318V38.5323L100.95 86.622V87.824L100.964 97.054V99.387L100.978 100.108L100.992 112.349L101.006 113.72L101.035 127.531V128.28L101.063 140.889V141.893L101.105 164.369V165.839L101.12 169.57Z" fill="white"/>
<path fill-rule="evenodd" clip-rule="evenodd" d="M100.843 37.2557L100.84 38.5228L100.65 38.7486L100.222 39.2002L99.794 39.6972L99.366 40.1489L98.463 41.0973L97.606 42.0911L96.751 43.0396L96.323 43.4913L95.895 43.9881L95.467 44.4398L94.991 44.9366L94.563 45.3882L94.135 45.8851L93.66 46.3367L93.232 46.7884L92.757 47.2398L92.281 47.6914L92.043 47.9624L91.806 48.143L91.568 48.3687L91.331 48.5946L91.093 48.8203L90.855 49.0461L90.617 49.2719L90.38 49.4976L90.142 49.7234L89.904 49.9492L89.619 50.1296L89.382 50.3553L89.002 50.6714L88.621 50.9874L88.194 51.3485L87.814 51.6645L87.433 51.9805L87.006 52.2963L86.626 52.6123L86.483 52.7478L86.198 52.9283L85.818 53.2443L85.39 53.5602L85.01 53.8761L84.582 54.192L84.155 54.5079L83.727 54.8239L83.299 55.1397L82.919 55.4104L82.492 55.7263L82.064 56.0422L81.636 56.3582L81.209 56.6288L80.781 56.9447L80.354 57.2605L78.643 58.4336L77.788 59.0202L77.551 59.2008L77.503 59.2007L76.886 59.6067L76.743 59.6968L76.031 60.1931L75.175 60.7796L74.51 61.1855L74.273 61.3208L73.418 61.9074L72.515 62.4485L71.66 63.0351L70.758 63.5763L69.903 64.1628L69 64.704L67.243 65.7865L65.485 66.9143L63.775 67.9968L63.49 68.132L62.017 69.0341L60.877 69.7558L59.69 70.4774L58.502 71.1989L57.315 71.8754L56.128 72.5969L55.083 73.2284L54.893 73.3185L53.705 73.9949L52.993 74.4007L52.47 74.7163L51.948 75.0321L51.283 75.3928L50.048 76.114L47.578 77.512L45.536 78.684L45.109 78.91L42.639 80.308L41.404 81.029L40.169 81.751L38.934 82.472L37.699 83.194L35.229 84.637L33.994 85.358L33.709 85.539L33.424 85.719L32.759 86.08L32.617 86.215L32.332 86.351L31.572 86.847L30.954 87.208L30.337 87.568L29.719 87.974L29.102 88.335L28.769 88.561L28.532 88.696L27.914 89.102L27.344 89.463L26.727 89.869L26.109 90.275L25.539 90.636L24.922 91.042L24.351 91.448L23.734 91.854L23.164 92.26L22.546 92.666L21.976 93.027L21.406 93.433L20.788 93.884L20.218 94.29L19.648 94.696L19.078 95.102L18.508 95.509L17.938 95.915L17.368 96.366L16.797 96.772L16.227 97.224L15.657 97.63L15.087 98.081L14.517 98.487L12.901 99.796L12.331 100.247L11.761 100.699L11.238 101.15L10.715 101.602L10.145 102.053L9.62201 102.504L9.09901 102.956L8.576 103.407L8.10101 103.814L8.05701 102.547L8.437 102.185L8.96001 101.734L9.53001 101.283L10.053 100.831L10.623 100.38L11.146 99.928L11.716 99.477L12.239 99.025L13.379 98.168L13.949 97.717L14.472 97.265L15.042 96.814L15.612 96.408L16.183 95.956L16.753 95.55L17.37 95.144L17.893 94.693L18.511 94.287L19.081 93.881L19.651 93.475L20.269 93.023L20.839 92.617L21.409 92.256L22.026 91.85L22.596 91.399L23.214 91.038L23.784 90.632L24.402 90.226L24.972 89.82L25.589 89.459L26.159 89.053L26.777 88.647L27.394 88.286L28.012 87.88L28.25 87.7L28.582 87.474L29.2 87.113L29.817 86.707L30.387 86.301L31.005 85.941L32.05 85.264L32.24 85.174L33.095 84.632L33.427 84.407L34.662 83.64L35.897 82.873L37.085 82.152L38.32 81.385L39.555 80.663L40.79 79.897L41.977 79.175L44.447 77.687L44.827 77.461L46.87 76.244L49.292 74.8005L50.479 74.0789L51.714 73.3573L52.902 72.6357L54.089 71.9141L54.232 71.7786L55.277 71.1924L56.464 70.4709L57.652 69.7493L58.792 69.0276L59.979 68.3059L61.119 67.5842L62.592 66.6821L62.877 66.5018L64.587 65.4191L66.344 64.382L68.149 63.2995L69.004 62.7582L69.907 62.2171L70.809 61.6306L71.664 61.1346L72.567 60.5482L73.422 60.0069L73.66 59.8716L74.325 59.4657L76.082 58.338L76.937 57.7966L77.84 57.2103L78.695 56.6237L79.55 56.0825L79.978 55.7665L80.405 55.4959L80.833 55.18L81.26 54.9093L81.688 54.5934L82.543 54.0069L82.97 53.7362L83.351 53.4202L83.778 53.1044L84.206 52.8338L84.586 52.5178L85.014 52.2018L85.441 51.9312L85.679 51.7055L85.821 51.6152L86.249 51.2994L86.629 50.9834L87.057 50.6674L87.437 50.3514L87.864 50.0808L88.245 49.7648L88.625 49.4489L88.863 49.223L89.1 49.0426L89.385 48.8168L89.623 48.6363L90.098 48.1848L90.336 47.959L90.573 47.7784L90.811 47.5527L91.049 47.327L91.286 47.1011L91.524 46.9207L91.952 46.469L92.427 46.0174L92.903 45.5659L93.331 45.1142L93.806 44.6628L94.234 44.2111L94.662 43.7594L95.137 43.2625L95.565 42.811L95.993 42.3593L96.896 41.4109L97.752 40.4623L98.656 39.5139L99.084 39.0622L99.559 38.5655L99.987 38.1138L100.415 37.6621L100.843 37.2557Z" fill="#4E84D6"/>
<path fill-rule="evenodd" clip-rule="evenodd" d="M100.923 86.625L100.968 87.846L100.73 87.937L100.35 88.207L99.4949 88.658L99.115 88.929L98.688 89.154L98.308 89.38L97.881 89.605L97.453 89.83L97.026 90.056L96.8829 90.146L96.598 90.281L96.503 90.371L96.218 90.507L95.791 90.732L95.363 90.957L95.078 91.138L94.509 91.408L93.654 91.814L92.799 92.265L91.992 92.67L90.282 93.527L89.427 93.977L88.573 94.383L87.765 94.834L86.91 95.239L86.341 95.555L85.723 95.825L85.153 96.141L84.584 96.411L84.014 96.681L83.396 96.997L82.827 97.267L82.257 97.538L81.639 97.808L81.07 98.078L80.5 98.349L79.8829 98.619L79.313 98.889L77.509 99.61L76.9389 99.88L76.369 100.15L75.752 100.375L75.182 100.6L74.565 100.871L73.948 101.096L73.378 101.321L72.761 101.591L72.3329 101.771H72.2859L72.1909 101.816L71.574 102.041L71.004 102.266L70.8139 102.356L70.3869 102.491L69.77 102.716L69.2 102.941L68.5829 103.166L68.013 103.392L67.966 103.391L67.396 103.617L66.779 103.796L66.162 104.021L65.5919 104.246L64.975 104.426L64.358 104.651L63.741 104.831L63.123 105.056L61.889 105.461L60.702 105.866L59.468 106.225L58.2339 106.63L57 106.989L55.766 107.394L54.532 107.754L53.298 108.113L50.8289 108.877L49.595 109.237L48.3609 109.597L47.981 109.686L47.602 109.776L47.269 109.911L46.89 110.001L46.1779 110.18L45.466 110.36L44.7059 110.539L44.089 110.719H43.994L43.235 110.898L42.8549 110.988L42.476 111.078L41.764 111.257L41.005 111.392L39.533 111.751L38.062 112.065L36.591 112.378L35.8309 112.558L35.1199 112.737L33.6479 113.096L32.889 113.276L32.177 113.455L31.465 113.635L30.753 113.815L30.373 113.904L29.661 114.129L29.329 114.219L28.949 114.354L28.57 114.444L28.237 114.534L27.525 114.758L27.43 114.803L27.193 114.893L26.813 115.028L26.481 115.118L26.149 115.253L25.769 115.343L25.437 115.478L25.104 115.613L24.535 115.838L24.012 116.064L23.49 116.243L22.968 116.469L22.445 116.694L21.353 117.189L20.831 117.46L20.309 117.685L19.786 117.955L19.264 118.226L18.742 118.496L18.219 118.767L17.174 119.353L16.604 119.623L16.082 119.939L15.559 120.255L15.037 120.525L14.562 120.886L14.039 121.157L13.517 121.518L12.519 122.149L11.997 122.51L11.474 122.826L10.952 123.187L10.477 123.503L9.95396 123.864L9.47895 124.225L8.95596 124.586L8.81396 124.676L8.48096 124.947L8.10095 125.217L8.10295 124.403L8.43495 124.177L8.57796 124.042L9.10095 123.681L9.57595 123.32L10.098 122.959L10.574 122.598L11.096 122.282L11.619 121.921L12.141 121.56L12.616 121.244L13.139 120.929L13.661 120.568L14.184 120.252L14.706 119.936L15.229 119.621L15.751 119.305L16.796 118.719L17.319 118.403L17.841 118.087L18.364 117.817L18.886 117.546L19.978 117.006L20.501 116.735L21.023 116.465L22.637 115.744L23.207 115.519L23.729 115.294L24.252 115.069L24.821 114.889L25.154 114.754L25.486 114.618L25.866 114.483L26.198 114.348L26.578 114.213L26.91 114.124L27.195 113.988L27.29 113.989L27.622 113.853L27.955 113.764L28.334 113.629L28.714 113.539L29.046 113.449L29.426 113.314L29.806 113.224L30.138 113.089L31.23 112.82L31.942 112.595L33.4129 112.236L34.172 112.057L34.884 111.877L35.644 111.698L36.403 111.518L37.8739 111.159L39.345 110.845L40.817 110.532L41.529 110.352L42.2879 110.173L42.4299 110.128L43 109.993L43.664 109.859L43.759 109.813L44.4709 109.634L45.183 109.454L45.9429 109.23L46.655 109.05L46.987 108.96L48.078 108.646L49.313 108.286L50.547 107.881L51.781 107.522L53.015 107.162L54.2489 106.758L55.483 106.398L56.718 105.993L57.904 105.634L59.139 105.229L60.373 104.824L61.56 104.419L62.794 104.014L63.4109 103.79L63.981 103.61L64.598 103.385L65.215 103.16L65.785 102.98L66.4019 102.755L67.019 102.53L67.589 102.305H67.636L68.2059 102.125L68.7749 101.9L69.392 101.675L70.0099 101.45L70.057 101.405H70.1049L70.5789 101.225L71.197 101L71.6239 100.82L71.766 100.774L72.3829 100.55L72.953 100.324L73.57 100.054L74.14 99.829L74.757 99.604L75.327 99.334L75.944 99.109L76.514 98.884L77.084 98.613L77.701 98.388L78.271 98.118L78.841 97.847L79.4579 97.577L80.028 97.352L80.597 97.082L81.215 96.812L81.785 96.541L82.354 96.271L82.924 96L83.541 95.73L84.1109 95.415L84.681 95.144L85.821 94.604L86.438 94.288L87.246 93.837L88.1 93.432L88.955 92.981L89.81 92.575L91.519 91.764L92.3739 91.313L93.182 90.908L94.0359 90.457L94.891 90.052L95.271 89.826L95.698 89.601L95.936 89.465H95.983L96.126 89.375L96.4109 89.24L96.5529 89.15L96.981 88.925L97.3609 88.699L97.7879 88.474L98.168 88.248L98.5959 88.023L99.0229 87.797L99.403 87.572L99.8309 87.301L100.211 87.076L100.591 86.85L100.923 86.625Z" fill="#4E84D6"/>
<path fill-rule="evenodd" clip-rule="evenodd" d="M101.941 98.166L101.656 98.346L100.944 98.752L100.942 99.386L100.658 99.114L100.564 98.978L100.516 98.932L100.469 98.887L100.28 98.705L100.09 98.479L99.9009 98.252L99.7119 98.026L99.5229 97.799L99.3329 97.572L99.1439 97.346L99.0019 97.119L98.8129 96.893L98.6239 96.666L98.4349 96.439L98.2929 96.213L98.1039 95.941L97.9139 95.714L97.7729 95.488L97.5829 95.261L97.4419 94.989L97.2519 94.763L96.9689 94.31L96.8269 94.038L96.6379 93.811L96.3539 93.313L96.1649 93.041L96.0229 92.814L95.8819 92.543L95.5979 92.044L95.3149 91.546L95.0779 91.138L95.0309 91.048L94.7479 90.549L94.5589 90.187L94.4639 90.006L94.2279 89.507L93.9449 89.009L93.7089 88.466L93.4249 87.922L93.1889 87.424L92.9529 86.88L92.6699 86.337L92.4339 85.838L92.1979 85.295L91.9619 84.751L91.4419 83.71L90.9699 82.577L90.4979 81.536L90.0259 80.449L89.6489 79.679L89.5069 79.362L89.2709 78.818L89.0349 78.275L88.7989 77.731L88.2799 76.689L87.9959 76.146L87.7599 75.6024L86.9579 73.9716L86.4379 72.9299L85.9189 71.8427L85.6349 71.3445L85.3989 70.801L84.8319 69.759L84.5959 69.2607L84.4549 68.9889L84.3129 68.7625L84.1709 68.4907L84.0289 68.2189L83.8869 67.9923L83.7459 67.7205L83.6039 67.494L83.4619 67.2675L83.3199 66.9956L83.1309 66.769L82.9889 66.5425L82.8479 66.2708L82.7059 66.0441L82.5169 65.8176L82.3749 65.5909L82.2329 65.3644L82.0439 65.1379L81.9019 64.9112L81.7129 64.6847L81.5229 64.4579L81.3339 64.2314L81.1919 64.0049L81.0029 63.7782L80.8139 63.5967L80.6249 63.3702L80.4349 63.1887L80.2459 62.9621L80.0569 62.7807L79.8679 62.5541L79.6309 62.3726L79.2049 61.9645L79.0149 61.7831L78.7789 61.6017L78.5889 61.4203L78.3519 61.2388L78.1159 61.0572L77.8789 60.8759L77.6419 60.6943L77.4049 60.5581L77.1209 60.3765L76.8839 60.195L76.7429 59.697L76.6959 59.3801L77.5029 59.2008L77.5509 59.2009L77.7399 59.3371L77.7869 59.3823L78.0719 59.5186L78.3079 59.7002L79.0659 60.2447L79.3499 60.4716L79.5869 60.653L79.8239 60.8798L80.0609 61.0612L80.2499 61.2426L80.4869 61.4694L80.7229 61.6961L80.9129 61.8775L81.1489 62.1042L81.3389 62.3308L81.5749 62.5576L81.7639 62.739L81.9539 62.9656L82.1429 63.1922L82.3319 63.4189L82.5209 63.6455L82.7109 63.9173L82.8999 64.1441L83.0889 64.3706L83.2779 64.5972L83.7509 65.3222L83.9399 65.5941L84.0819 65.8207L84.2709 66.0926L84.4129 66.3191L84.6019 66.591L84.7439 66.8176L84.8859 67.0894L85.0269 67.3158L85.1689 67.5876L85.3109 67.8594L85.4529 68.086L85.5939 68.3578L85.7829 68.6297L86.0669 69.1279L86.3029 69.6716L86.5859 70.1698L86.8699 70.7134L87.1529 71.2569L87.6729 72.2988L88.1919 73.3858L88.4759 73.8842L88.7589 74.4278L88.9949 74.9713L89.8449 76.557L90.0809 77.146L90.3649 77.644L90.6009 78.187L90.8369 78.776L91.0259 79.093L91.3559 79.818L91.8749 80.905L92.3469 81.992L92.8189 83.034L93.3389 84.121L93.5749 84.664L94.0939 85.706L94.3299 86.204L94.5659 86.748L94.8499 87.246L95.0859 87.79L95.3689 88.288L95.6049 88.786L95.8889 89.284L95.9359 89.466H95.9829L96.1249 89.783L96.4089 90.281L96.5029 90.372L96.6919 90.779L96.9749 91.278L97.2589 91.776L97.4009 92.003L97.6839 92.501L97.8259 92.728L97.9679 92.954L98.1569 93.181L98.2519 93.407L98.4409 93.634L98.5819 93.905L98.7239 94.132L98.9139 94.359L99.0549 94.585L99.2449 94.812L99.3859 95.038L99.5279 95.265L99.7169 95.492L99.8589 95.718L100.049 95.945L100.19 96.126L100.38 96.353L100.569 96.579L100.711 96.806L100.9 96.987L100.947 97.078L101.089 97.214L101.468 97.622L101.657 97.849L101.704 97.894L101.799 98.075L101.941 98.166Z" fill="#4E84D6"/>
<path fill-rule="evenodd" clip-rule="evenodd" d="M101.022 127.532L101.02 128.301L100.831 128.21L100.404 128.028L99.9779 127.846L99.5509 127.664L99.1249 127.482L98.6979 127.301L98.2719 127.119L97.8449 126.892L97.4189 126.71L97.0399 126.483L96.6129 126.256L96.2339 126.074L95.8079 125.847L95.4289 125.62L95.0019 125.438L94.6229 125.211L94.2439 124.984L93.8179 124.711L93.4389 124.484L93.0599 124.257L92.6809 123.985L92.3019 123.758L92.2549 123.713L91.9229 123.486L91.1659 122.987L90.7869 122.76L90.4079 122.487L90.0289 122.215L89.6499 121.943L89.3189 121.671L88.9399 121.398L88.5609 121.126L88.2289 120.854L88.1349 120.763L87.8499 120.536L87.5189 120.264L87.1399 119.992L86.8089 119.674L86.7139 119.629L86.4299 119.402L86.0989 119.085L85.7669 118.813L85.4359 118.495L85.0569 118.178L84.7259 117.86L84.3939 117.588L84.0629 117.271L83.6839 116.953L83.3999 116.636L83.0209 116.318L82.6899 116.001L81.7429 115.049L81.3649 114.686L81.0809 114.368L80.7499 114.051L80.4179 113.688L80.0869 113.371L79.7559 113.054L79.4719 112.691L79.1409 112.328L78.8089 112.011L78.7149 111.875L78.5249 111.648L78.1939 111.286L77.9099 110.968L77.8159 110.878L77.5789 110.606L77.2949 110.243L76.9639 109.926V109.88L76.6329 109.563L76.3489 109.2L76.0649 108.838L75.4499 108.113L74.8349 107.387L74.2199 106.662L73.6519 105.937L73.0369 105.212L72.4699 104.441L71.8549 103.716L71.2869 102.991L70.8139 102.356L70.7189 102.22L70.1519 101.45L70.1049 101.405H70.0569L69.5369 100.725V100.679L68.9689 99.954L68.4489 99.184L67.3139 97.643L66.1789 96.148L65.9429 95.785L65.7059 95.468L65.2329 94.833L64.7599 94.199L64.4289 93.836L64.2399 93.564L63.7669 92.93L63.2939 92.341L62.8209 91.706L62.3009 91.072L61.3069 89.803L60.8339 89.168L60.3609 88.534L59.8409 87.899L59.3679 87.265L58.8949 86.675V86.63L58.4219 85.996L57.9489 85.361L57.7129 84.999L57.4759 84.682L57.2399 84.364L57.0029 84.047L56.7669 83.685L56.5309 83.367L56.3419 83.05L56.1049 82.688L55.8689 82.37L55.6799 82.008L55.4429 81.691L55.2539 81.329L55.0179 81.011L54.8289 80.649L54.6399 80.287L54.4029 79.969L54.2149 79.607L53.7889 78.927L53.5999 78.52L53.4109 78.203L53.2699 77.84L53.0809 77.478L52.7029 76.753L52.5139 76.345L52.3729 75.983L52.1839 75.6207L52.0419 75.2132L51.9479 75.032L51.8529 74.8507L52.1869 74.0822L52.9929 74.3553V74.4006L53.1339 74.7176L53.3229 75.1253L53.4649 75.4876L53.6539 75.8499L53.8429 76.167L53.9839 76.529L54.3619 77.254L54.5509 77.571L54.7399 77.934L55.5429 79.293L55.7319 79.61L55.9689 79.972L56.1579 80.29L56.3469 80.607L56.5829 80.924L56.8199 81.286L57.0559 81.604L57.2449 81.921L57.4819 82.238L57.7179 82.555L57.9069 82.918L58.1439 83.235L58.3799 83.552L58.6169 83.869L58.8529 84.187L59.0899 84.459L59.5629 85.093L60.0359 85.728L60.0829 85.773L60.5559 86.362L61.0289 86.997L61.5489 87.631L62.4949 88.855L63.5359 90.124L64.0089 90.713L64.5289 91.348L65.0019 91.982L65.5229 92.617L65.7119 92.843L65.9959 93.251L66.4689 93.886L66.9889 94.565L67.4619 95.2L68.5969 96.741L69.1169 97.466L69.6849 98.236L70.2519 99.007L70.8199 99.732V99.777L71.3869 100.502L71.6239 100.819L71.9549 101.273L72.2859 101.771H72.3329L72.5219 102.043L73.0899 102.813L73.6569 103.539L74.2249 104.309L74.7929 105.034L75.3599 105.759L75.9279 106.484L76.5429 107.255L77.1099 107.98L77.3939 108.297L77.6779 108.66L78.0089 109.023L78.2929 109.385L78.5769 109.748L78.8609 110.111L79.1449 110.383L79.1919 110.428L79.4759 110.791L79.7129 111.017L79.8069 111.153L80.0909 111.471L80.3749 111.833L80.7059 112.15L81.0379 112.513L81.3209 112.83L81.9369 113.511L82.2679 113.873L82.5519 114.191L82.8829 114.508L83.2139 114.825L83.4979 115.188L83.8299 115.505L84.1609 115.823L84.4919 116.14L84.8239 116.458L85.1549 116.775L85.4859 117.092L85.8179 117.365L86.1489 117.682L86.4799 118L86.8119 118.317L87.1429 118.589L87.4749 118.906L87.7109 119.088L87.8059 119.179L88.1369 119.496L88.5159 119.768L88.8479 120.041L89.1319 120.267L89.1789 120.358L89.5579 120.63L89.8889 120.902L90.5999 121.447L90.9789 121.719L91.3099 121.991L91.6889 122.264L92.4469 122.763L92.7309 122.99L92.7779 123.035L93.1569 123.262L93.5359 123.534L94.2939 123.988L94.6729 124.261L95.0519 124.488L95.4309 124.715L95.8099 124.942L96.1889 125.169L96.6149 125.396L96.9939 125.578L97.3729 125.805L97.7999 126.032L98.1789 126.214L98.6049 126.441L99.0319 126.623L99.4109 126.849L100.216 127.213L100.643 127.395L101.022 127.532Z" fill="#4E84D6"/>
<path fill-rule="evenodd" clip-rule="evenodd" d="M93.6499 179.058C93.1279 179.192 92.6059 179.282 92.0369 179.281L91.9899 179.235L91.6579 179.008L91.5639 178.918L91.1369 178.6L90.7109 178.283L90.2849 177.965L89.8589 177.647L89.4329 177.33L89.0059 177.012L88.2009 176.377L87.8229 176.059L87.4439 175.742L87.0649 175.424L86.6859 175.107L86.3069 174.789L85.9289 174.427L85.7389 174.245L85.5499 174.064L85.1709 173.701L84.7929 173.338L84.4619 172.976L84.0829 172.613L83.7519 172.25L83.7039 172.205L83.3729 171.887L82.6629 171.117L82.6159 171.026L82.3319 170.709L82.0009 170.346L81.6689 169.983L81.0069 169.213L80.3449 168.442L79.6819 167.672L79.0199 166.901L78.6889 166.538L78.0259 165.768L77.6949 165.405L77.3639 165.042L77.0319 164.68L76.7009 164.317L76.3699 163.954L76.0389 163.592L75.7079 163.229L75.3289 162.866L74.9499 162.503L74.5239 162.095L74.0979 161.687L73.6249 161.279L73.1989 160.871L72.2989 160.055L71.3999 159.238L70.4999 158.422L70.0269 158.014L69.6009 157.606L69.1269 157.197L68.7009 156.789L68.2749 156.381L67.3759 155.52L66.9499 155.066L66.0979 154.205L65.9089 153.978L65.7199 153.751L65.5299 153.525L65.3409 153.298L65.1519 153.072L64.9629 152.845L64.7729 152.618L64.5839 152.392L64.3949 152.165L64.2059 151.938L64.0159 151.712L63.8749 151.53L63.8269 151.485L63.6379 151.258L63.4489 150.987L63.2599 150.76L63.2119 150.669L63.1179 150.533L62.9289 150.261L62.7389 149.99L61.9829 148.993L61.7939 148.721L61.6049 148.449L61.3209 147.996L61.0369 147.543L60.7539 147.09L60.4699 146.636L60.1859 146.183L59.9029 145.73L59.6189 145.277L59.3359 144.779L59.0519 144.326L58.7689 143.827L58.5319 143.374L58.2489 142.876L58.0129 142.378L57.7769 141.88L57.5409 141.381L57.3049 140.883L57.2579 140.747L57.0689 140.385L56.8319 139.887L56.5959 139.388L56.1239 138.392L55.8879 137.894L55.8409 137.758L55.6519 137.441L55.6049 137.35L55.5579 137.214L55.4159 136.943L55.1799 136.444V136.399L54.9439 135.901L54.4719 134.904L53.9999 133.908L53.5269 132.911L53.0549 131.915L52.6309 130.919L51.7339 128.926L50.8369 126.933L50.4119 125.936L49.9399 124.94L49.5149 123.944L49.2789 123.445L49.0429 122.947L48.7599 122.313L48.5709 121.951L48.3349 121.452L48.0989 120.954L47.8629 120.456L47.6269 119.958L47.3909 119.46L47.1549 118.961L46.9189 118.463L46.6819 117.965L46.4459 117.467L46.2099 116.968L45.7379 116.017L45.2659 115.066L44.7939 114.115L44.3209 113.163L43.3289 111.261L43.1399 110.944L42.7149 110.083L42.3369 109.358L41.8649 108.407L41.3929 107.456L40.9209 106.505L40.4479 105.553L39.9759 104.602L39.7399 104.104L39.5039 103.606L39.2679 103.153L39.0319 102.655L38.7959 102.156L38.5599 101.658L38.3239 101.16L38.0869 100.662L37.8989 100.163L37.6629 99.665L37.4739 99.167L37.2849 98.669L37.0969 98.171L36.9079 97.673L36.7199 97.174L36.5309 96.676L36.3419 96.178L36.1539 95.68L35.9649 95.182L35.7759 94.684L35.5879 94.186L35.3989 93.688L35.2099 93.189L35.0219 92.691L34.8329 92.193L34.6449 91.695L34.5029 91.197L34.3149 90.699L34.1739 90.201L34.0319 89.658L33.8909 89.159L33.7499 88.661L33.4679 87.62L33.3269 87.077L33.1849 86.579L33.0919 86.126V86.035L33.0449 85.945L32.9509 85.538L33.4269 84.814L33.7579 84.996L34.1369 85.268V85.314L34.2309 85.812L34.3719 86.31L34.5129 86.808L34.6539 87.351L34.7949 87.849L34.9369 88.347L35.0779 88.845L35.2189 89.343L35.3599 89.841L35.5009 90.339L35.6429 90.837L35.8309 91.335L36.0199 91.834L36.2089 92.332L36.3969 92.83L36.5859 93.328L36.9629 94.324L37.1519 94.822L37.3399 95.321L37.5289 95.819L37.7179 96.317L37.9059 96.815L38.0949 97.313L38.2839 97.811L38.4719 98.309L38.6609 98.808L38.8489 99.306L39.0859 99.804L39.2739 100.257L39.5099 100.755L39.7459 101.253L39.9829 101.706L40.2189 102.204L40.4549 102.703L40.6909 103.156L40.9269 103.609L41.1629 104.107L41.6349 105.058L42.1079 106.009L42.5799 106.961L43.0519 107.912L43.5239 108.863L44.0439 109.86L44.5159 110.72V110.765L45.5079 112.668L45.9809 113.619L46.4529 114.571L46.9249 115.522L47.3969 116.473L47.6329 116.971L47.8689 117.469L48.1049 117.968L48.3419 118.466L48.5779 118.964L48.8139 119.462L49.0499 119.961L49.2859 120.459L49.5219 120.957L49.7579 121.455L49.8999 121.772L50.2299 122.452L50.4189 122.905L50.6549 123.448L51.1269 124.445L51.5519 125.441L52.0239 126.438L52.9209 128.43L53.8179 130.423L54.2899 131.42L54.7139 132.416L56.0829 135.405L56.2719 135.858V135.904L56.5079 136.402L56.6029 136.628L56.6969 136.855L56.7909 137.036L56.9329 137.353L57.1689 137.851L57.4049 138.349L57.6409 138.848L57.8769 139.346L58.1129 139.844L58.3019 140.206L58.3489 140.342L58.5849 140.841L58.8219 141.339L59.0579 141.792L59.2939 142.29L59.5769 142.743L59.8139 143.196L60.0969 143.649L60.3329 144.102L60.6169 144.555L60.9009 145.008L61.1839 145.461L61.4679 145.914L62.0349 146.821L62.3189 147.274L62.6019 147.727L62.7909 147.999L62.9799 148.27L63.1699 148.497L63.3589 148.769L63.5479 148.996L63.7369 149.222L63.9269 149.449L64.1159 149.721L64.3049 149.948L64.3999 150.084L64.4939 150.174L64.6829 150.401L64.8729 150.627L65.0619 150.854L65.1089 150.899L65.2509 151.081L65.4399 151.307L65.6299 151.534L65.8189 151.761L66.0079 151.987L66.1969 152.214L66.3869 152.441L66.5759 152.667L66.7649 152.894L66.9539 153.12L67.1439 153.347L67.5689 153.8L67.9949 154.209L68.4219 154.617L68.8479 155.025L69.2739 155.433L69.6999 155.841L70.1259 156.249L71.0249 157.065L71.4989 157.474L72.3979 158.29L73.2969 159.106L74.1969 159.923L74.6699 160.331L75.1439 160.739L76.0429 161.601L77.5099 163.052L77.8419 163.414L78.1729 163.777L78.5039 164.14L78.8349 164.502L79.1669 164.91L79.8289 165.681L80.1599 166.089L80.8229 166.859L81.4849 167.63L82.1469 168.401L82.8099 169.171L83.1409 169.534L83.4719 169.897L83.8029 170.259L84.0869 170.577L84.1819 170.667L84.5129 171.03L84.8439 171.393L85.1759 171.755L85.5069 172.118L85.8379 172.481L86.1689 172.843L86.5479 173.161L86.7379 173.342L87.3059 173.841L87.6839 174.159L88.0629 174.476L88.4419 174.794L88.8209 175.111L89.1999 175.429L89.5779 175.746L89.9569 176.064L90.3359 176.381L90.7619 176.699L91.1409 177.017L91.5669 177.334L91.9929 177.652L92.4199 177.969L92.5139 178.06L92.7979 178.287L93.2249 178.604L93.6499 179.058Z" fill="#4E84D6"/>
<path fill-rule="evenodd" clip-rule="evenodd" d="M18.869 61.2998L19.247 61.6625L19.626 62.0254L20.005 62.3881L20.383 62.7509L20.762 63.1136L21.093 63.4762L21.33 63.7031L21.424 63.7937L21.756 64.1565L22.087 64.5191L22.418 64.8818L22.749 65.2444L23.081 65.607L23.27 65.8338L23.365 65.9697L23.696 66.3323L23.98 66.695L24.263 67.0575L24.547 67.4202L24.831 67.7374L24.879 67.7828L25.162 68.1454L25.446 68.5079L25.73 68.8705L26.014 69.2331L26.25 69.5955L26.486 69.9581L26.723 70.3205L26.959 70.6831L27.196 71.0455L27.432 71.4079L27.479 71.4986L27.668 71.8158L27.905 72.2235L28.141 72.6312L28.377 73.039L28.613 73.4467L28.802 73.8543L28.991 74.2619L29.18 74.6695L29.369 75.0773L29.558 75.4849L29.746 75.8925L29.935 76.3L30.124 76.708L30.171 76.798L30.313 77.115L30.502 77.523L30.691 77.931L30.879 78.338L31.068 78.746L31.257 79.199L31.446 79.652L31.587 80.105L31.728 80.557L31.87 81.01L32.011 81.463L32.152 81.916L32.294 82.369L32.435 82.821L32.576 83.274L32.717 83.727L32.859 84.18L33 84.633L33.141 85.085L33.283 85.583L33.424 86.081L33.565 86.579L33.659 86.942L33.706 87.078L33.278 87.801L32.52 87.392L32.472 87.256L32.378 86.894L32.237 86.396L32.096 85.898L31.955 85.445L31.813 84.992L31.672 84.539L31.531 84.087L31.389 83.634L31.248 83.181L31.107 82.728L30.966 82.275L30.824 81.823L30.683 81.37L30.542 80.917L30.4 80.509L30.259 80.102L30.117 79.694L29.976 79.287L29.787 78.879L29.598 78.472L29.409 78.064L29.221 77.656L29.079 77.339L29.032 77.249L28.843 76.841L28.654 76.433L28.465 76.026L28.277 75.6181L28.088 75.2105L27.899 74.8027L27.71 74.3951L27.521 73.9875L27.332 73.5798L27.143 73.2175L26.907 72.8549L26.671 72.4925L26.481 72.2206L26.434 72.13L26.198 71.7675L25.961 71.405L25.725 71.0426L25.489 70.6801L25.252 70.3176L25.016 69.9551L24.78 69.5926L24.543 69.2302L24.307 68.8676L24.023 68.5051L23.976 68.4597L23.739 68.1426L23.455 67.7799L23.172 67.4174L22.888 67.0547L22.604 66.6922L22.509 66.5563L22.32 66.3295L22.036 65.967L21.753 65.6044L21.469 65.2419L21.185 64.8793L20.901 64.5167L20.807 64.3807L20.617 64.1089L20.286 63.7462L19.955 63.3835L19.624 63.0209L19.292 62.6581L18.961 62.2955L18.63 61.9328L18.631 61.6613L18.869 61.2998Z" fill="#4E84D6"/>
<path fill-rule="evenodd" clip-rule="evenodd" d="M101.008 112.373L98.587 113.59L95.1199 115.302L93.41 116.158L91.701 117.015L90.9409 117.375L89.991 117.916L88.3289 118.818L87.711 119.179L86.7619 119.72L86.667 119.765L85.004 120.667L83.3419 121.568L81.632 122.47L79.97 123.371L78.261 124.273L76.5509 125.175L74.841 126.076L73.9859 126.527L73.131 126.978L72.2769 127.428L71.422 127.879L69.712 128.736L68.8569 129.186L68.24 129.502L68.003 129.592L67.1479 129.997L66.293 130.403L65.438 130.808L64.584 131.214L63.492 131.71L61.877 132.521L61.3549 132.791L60.832 133.062L60.31 133.332L59.265 133.918L58.22 134.459L57.175 135.045L56.13 135.632L56.0829 135.677L55.608 135.947L55.085 136.218L54.9429 136.308L54.563 136.488L54.041 136.759L52.949 137.299L52.4259 137.57L52.2359 137.66L51.904 137.886L51.381 138.201L50.8589 138.472L50.336 138.742L50.194 138.787H50.147L49.767 138.967L49.4819 139.102H49.434L49.197 139.192L48.96 139.282L48.912 139.237L48.865 139.192L48.77 139.101L48.675 139.056L48.5809 139.01H48.533H48.438H48.343L48.011 139.009L47.727 139.008L47.11 138.962L46.494 138.915L45.877 138.869L45.261 138.822L44.644 138.776L44.0269 138.729L43.4109 138.683L42.794 138.636H42.5099L42.1779 138.635L41.561 138.679L40.28 138.722L39.6629 138.766L38.9989 138.81L38.382 138.854L37.718 138.898L37.101 138.942L36.437 138.986L35.7729 139.029L35.156 139.074L34.492 139.117L33.828 139.161L33.164 139.205L32.499 139.249L31.835 139.293L31.171 139.337L30.507 139.381L29.843 139.425L29.178 139.469L28.514 139.558L27.85 139.602L27.186 139.691H27.043L26.521 139.78L25.857 139.915L25.24 140.049L24.623 140.184L23.959 140.318L22.677 140.587L22.013 140.721L21.396 140.856L20.779 140.99L20.162 141.125L19.545 141.259L18.928 141.394L18.311 141.528L17.694 141.663L15.843 142.112L15.226 142.291L14.609 142.471L13.992 142.651L12.758 143.01L11.524 143.37L10.907 143.55L10.29 143.729L10.147 143.774L9.67295 143.909L9.05595 144.089L8.43796 144.314L8.20095 144.404L8.19995 144.947L8.23995 169.835C8.23695 170.921 8.42495 171.962 8.75395 172.958L8.99195 172.823L9.22895 172.688L9.41895 172.553L9.65695 172.417L10.084 172.147L10.512 171.876L10.892 171.605L11.32 171.335L11.795 171.019L12.222 170.703L12.65 170.387L13.077 170.071L13.505 169.755L13.933 169.439L14.36 169.123L14.788 168.808L15.216 168.492L15.643 168.176L16.071 167.86L16.498 167.544L16.926 167.228L17.354 166.912L17.781 166.596L18.209 166.28L18.637 165.965L19.064 165.603L19.492 165.287L19.92 164.972L20.3 164.656L21.108 163.978L21.488 163.662L21.916 163.301L22.723 162.624L23.531 161.947L23.959 161.586L24.339 161.225L25.1 160.502L25.86 159.78L26.621 159.057L27.382 158.335L28.142 157.612L28.903 156.89L30.424 155.445L31.945 154.045L33.419 152.645L34.179 151.923L34.94 151.246L35.7 150.568L36.46 149.891L36.698 149.665L36.936 149.44L37.173 149.214L37.4109 148.988L37.649 148.762L37.8869 148.536L38.1239 148.311L38.362 148.085L39.36 147.227L39.8829 146.821L40.405 146.415L40.9279 146.009L41.451 145.602L41.973 145.196L42.496 144.79L43.589 143.978L44.682 143.165L45.347 142.669L45.679 142.443L45.822 142.308L46.0119 142.172L46.345 141.902L46.677 141.631L47.0099 141.36L47.343 141.089L47.438 140.999L47.533 140.909L47.8179 140.683L47.961 140.547L48.151 140.412L48.293 140.277L48.436 140.141L48.578 140.006L48.626 139.96L48.674 139.87L48.7209 139.825L48.769 139.735L48.8159 139.644L48.864 139.554L48.912 139.463L48.959 139.373L49.007 139.283L49.292 139.147L49.529 139.012H49.577L49.862 138.877L50.431 138.697L51.001 138.472L51.571 138.247L52.141 138.022L52.52 137.887L52.71 137.797L53.233 137.526L53.755 137.256L54.1349 137.075L54.182 137.076L54.2769 136.985L54.8 136.715L55.132 136.535L55.322 136.444L55.845 136.174L56.272 135.949L56.367 135.904L57.412 135.317L58.457 134.731L59.502 134.145L60.546 133.559L61.069 133.288L61.591 133.018L62.114 132.748L62.636 132.477L63.158 132.207L63.681 131.936L64.203 131.666L64.726 131.395L65.58 130.99L66.435 130.584L67.2899 130.179L68.145 129.773L68.382 129.638L69.047 129.323L69.9019 128.917L70.756 128.511L71.6109 128.106L72.466 127.7L73.32 127.295L74.175 126.889L75.03 126.484L76.787 125.628L78.544 124.771L80.254 123.915L82.011 123.059L83.72 122.202L85.4299 121.346L87.139 120.49L87.899 120.129L88.896 119.634L90.606 118.777L91.556 118.327L92.268 117.921L93.9299 116.974L95.593 116.027L98.917 114.133L100.722 113.096L101.008 112.373ZM12.894 145.681L12.277 145.86L11.66 146.04L9.76196 146.534L9.52396 146.624H9.38196L9.85696 146.489L10.426 146.309L11.043 146.129L11.66 145.995L12.23 145.815L12.847 145.68L13.464 145.546L12.894 145.681ZM43.451 142.213L43.2599 142.348L43.403 142.258L43.451 142.213Z" fill="#4E84D6"/>
<path fill-rule="evenodd" clip-rule="evenodd" d="M57.8849 135.861V135.906L57.5999 136.087L57.3149 136.267L57.0299 136.448L56.7449 136.628L56.4589 136.808L56.1739 136.989L55.8889 137.169L55.6039 137.35L55.3189 137.53L55.0339 137.711L54.9869 137.756L54.7489 137.891L54.4639 138.071L54.1789 138.252L53.8939 138.432L53.6089 138.613L53.3239 138.793L53.0389 138.974L52.7539 139.154L52.4689 139.334L52.3739 139.425L52.1839 139.515L51.8519 139.695L51.5189 139.876L50.9019 140.236L50.2849 140.552L49.6669 140.867L49.6199 140.912L49.0019 141.183L48.3379 141.453L47.6729 141.723L47.0079 141.993L46.6759 142.128L45.6789 142.488L44.3499 142.983L43.6849 143.254L43.4479 143.344L43.0199 143.479L42.3559 143.703L41.6909 143.928L41.0269 144.153L40.5039 144.379L40.4089 144.423L40.0769 144.513L39.7449 144.648L39.4119 144.784L39.0799 144.919L38.7479 145.054L38.4149 145.189L37.8939 144.871L37.4199 144.689L37.2319 144.236L37.4219 143.739L37.5189 143.105L37.8509 142.925L38.1839 142.745L38.5159 142.564L38.8479 142.429L39.1809 142.294L39.5129 142.159L39.6079 142.114L40.1299 141.889L40.7949 141.619L41.4599 141.349L42.1239 141.078L42.5519 140.898L42.7889 140.808L43.4539 140.583L44.7829 140.134L45.7799 139.773L46.1119 139.684L46.7769 139.504L47.4409 139.324L48.1059 139.099L48.7229 138.92H48.7699L49.4349 138.74L50.0989 138.56L50.7639 138.381L51.0959 138.291L51.4279 138.201L51.6179 138.156L51.7599 138.111L52.0929 138.021L52.4249 137.932L52.7569 137.842L53.0889 137.752L53.4219 137.662L53.7539 137.572L54.0859 137.483L54.4189 137.347L54.7029 137.257L54.7509 137.258L55.0829 137.122L55.4159 136.987L55.7479 136.852L56.0799 136.717L56.4129 136.582L56.7449 136.447L57.0769 136.312L57.4099 136.132L57.7419 135.951L58.0749 135.771L57.8849 135.861Z" fill="#4E84D6"/>
<path fill-rule="evenodd" clip-rule="evenodd" d="M46.2049 140.634L46.9629 141.043L46.5339 141.766L46.0589 142.173L45.9639 142.218L45.2999 142.397L44.6349 142.577L43.9709 142.757L43.3059 142.936L42.6419 143.116L41.3599 143.475L40.0789 143.835L39.4139 144.06L38.7969 144.24L37.5149 144.599L36.8979 144.779L36.2809 144.958L35.6639 145.138L35.4269 145.228L35.0469 145.318L34.4299 145.498L33.8129 145.677L33.1959 145.857L32.5789 146.037L32.2939 146.127L31.9619 146.217L31.2969 146.351L30.6799 146.486L30.5379 146.531L30.0629 146.62L29.3989 146.755L29.0669 146.844L28.7349 146.934L28.4969 146.979H28.4019L28.0699 147.069L27.7379 147.159L27.4059 147.248L27.0729 147.338L26.7409 147.428L26.4089 147.518L26.0769 147.608L25.1289 147.244L25.5579 146.294L25.8429 146.114L26.1279 145.933L26.4129 145.753L26.6979 145.573L26.9829 145.392L27.2679 145.212L27.5529 145.077L27.6479 145.032L27.8849 144.941L28.1699 144.806L28.5019 144.671L29.1199 144.401L29.5949 144.176L29.7369 144.131L30.3539 143.906L30.9709 143.681L31.3039 143.546L31.5879 143.456L32.2529 143.276L32.9169 143.096L33.5819 142.917L34.2459 142.737L34.6259 142.647L34.8629 142.603L35.5279 142.468L36.1919 142.334L36.8569 142.199L38.1379 141.93L38.7549 141.796L39.4669 141.662L40.7959 141.393L42.1239 141.124L42.7889 140.99L43.4529 140.855L44.1169 140.721L44.7819 140.586L45.4459 140.452L45.5409 140.407L46.2049 140.634Z" fill="#4E84D6"/>
<path fill-rule="evenodd" clip-rule="evenodd" d="M47.1569 139.188L48.0579 139.19L48.7689 139.644L48.2929 140.367L47.4859 140.727L46.7259 141.133H46.6779L45.8239 141.358L44.9699 141.582L44.1149 141.807L43.2609 142.031L42.2639 142.255L41.5529 142.39L39.8919 142.748L39.5119 142.838L38.2309 143.062L36.9019 143.285L36.5219 143.33L34.8139 143.553L33.9599 143.687L33.1059 143.821L32.6309 143.91L32.2519 143.955L31.3979 144.089L30.5429 144.223L29.6889 144.357L28.8349 144.491L27.9809 144.625L27.4119 144.714L27.1269 144.759L26.2729 144.893L25.4189 145.027L24.5639 145.206L23.7099 145.385L22.8559 145.565L22.0019 145.744L21.1479 145.923L20.8159 145.742L21.0059 145.425L21.8129 145.155L22.6199 144.886L23.4269 144.616L24.2339 144.346L25.0409 144.076L25.8479 143.806L26.6549 143.536L26.9399 143.446L27.5099 143.266L28.3169 143.042L29.1239 142.817L29.9299 142.592L30.7369 142.368L31.5439 142.143L31.8759 142.053L32.3509 141.919L33.2049 141.694L34.0599 141.47L35.7209 141.02L36.0529 140.931L37.3819 140.662L38.6629 140.393L39.0429 140.303L40.7509 139.99L41.4629 139.856L42.4599 139.676L43.3139 139.542L44.1679 139.408L45.0219 139.274L45.8759 139.14H45.9239L47.1569 139.188Z" fill="#4E84D6"/>
<path fill-rule="evenodd" clip-rule="evenodd" d="M101.415 99.839L100.988 100.11L100.56 100.38L100.133 100.651L99.705 100.876L99.23 101.147L98.803 101.417L98.375 101.688L97.52 102.184L97.046 102.409L96.191 102.906L95.763 103.176L95.288 103.401L94.861 103.627L94.386 103.897L93.958 104.123L93.484 104.348L93.056 104.573L92.581 104.799L92.106 105.024L91.679 105.249L91.204 105.475L90.777 105.7L90.302 105.88L89.4 106.286L88.973 106.466L88.688 106.601L88.498 106.691L87.596 107.096L87.168 107.277L86.693 107.457L86.266 107.637L85.317 107.997L84.414 108.402L83.512 108.717L82.61 109.077L81.661 109.437L79.857 110.113L79.145 110.383L78.907 110.473L78.005 110.788L77.815 110.878L76.154 111.463L74.35 112.138L72.498 112.813L71.596 113.128L70.694 113.488L69.745 113.803L68.843 114.163L67.941 114.523L66.991 114.838L65.187 115.558L64.285 115.919L63.858 116.099L63.383 116.279L62.956 116.504L62.481 116.684L62.054 116.864L61.579 117.044L60.962 117.315L60.297 117.63L59.632 117.9L58.967 118.216L58.35 118.531L57.685 118.847L57.115 119.072L57.02 119.117L56.403 119.432L55.738 119.748L55.121 120.108L54.456 120.379L53.839 120.739L53.174 121.055L52.557 121.37L51.892 121.731L51.274 122.047L50.087 122.678L49.992 122.723L48.947 123.264L48.71 123.399L46.193 124.751L44.911 125.382L43.628 126.058L42.963 126.419L42.346 126.734L41.681 127.05L41.064 127.411L39.687 128.087L38.357 128.763L35.603 130.115L32.896 131.467L31.519 132.188L30.142 132.864L28.812 133.54L27.435 134.216L26.057 134.937L24.68 135.659L21.973 137.056L21.308 137.417L20.644 137.777L19.931 138.138L19.266 138.498L18.601 138.859L17.936 139.22L17.272 139.58L16.607 139.941L15.942 140.347L15.277 140.708L14.612 141.114L13.947 141.474L13.282 141.835L12.617 142.241L11.952 142.602L11.287 143.007L10.622 143.368L10.052 143.729L9.95698 143.774L9.33997 144.18L8.67498 144.586L8.15198 144.902L8.15498 143.454L8.67798 143.138L9.34298 142.732L10.008 142.371L10.673 141.965L11.338 141.559L12.003 141.199L12.668 140.793L13.333 140.432L13.998 140.026L14.662 139.666L15.327 139.305L15.992 138.899L16.705 138.539L17.37 138.178L18.699 137.411L19.364 137.051L20.077 136.69L20.742 136.329L21.406 135.969L22.784 135.247L24.161 134.572L25.491 133.85L26.868 133.129L28.245 132.453L29.622 131.777L30.952 131.056L32.329 130.38L35.083 129.028L37.79 127.63L39.12 126.954L40.497 126.278L41.114 125.963L41.779 125.647L42.444 125.332L43.061 124.971L44.344 124.295L45.578 123.664L48.143 122.312L48.428 122.131L49.425 121.636L49.568 121.545L50.707 120.959L51.325 120.644L51.99 120.283L52.607 119.968L53.272 119.607L53.889 119.291L54.554 118.976L55.219 118.661L55.836 118.345L56.501 118.03L56.596 117.985L57.166 117.714L57.831 117.399L58.448 117.083L59.113 116.813L59.778 116.498L60.442 116.182L61.107 115.912L61.582 115.732L62.009 115.507L62.911 115.147L63.386 114.967L63.813 114.786L64.763 114.426L65.665 114.066L66.567 113.706L67.516 113.346L68.419 112.986L69.321 112.671L70.223 112.311L71.172 111.996L72.074 111.681L73.926 111.006L75.777 110.331L76.964 109.881L77.581 109.656L78.293 109.386L78.53 109.295L79.432 108.981L80.335 108.62L81.237 108.305L82.186 107.945L83.99 107.27L84.892 106.865L87.124 105.964L87.598 105.784L88.026 105.604L88.216 105.514L88.453 105.379L88.928 105.199L89.355 104.973L89.83 104.793L90.257 104.613L90.685 104.388L91.16 104.162L91.587 103.937L92.062 103.712L92.489 103.531L92.964 103.306L93.392 103.081L93.867 102.81L94.294 102.585L94.721 102.36L95.196 102.134L95.624 101.864L96.051 101.638L96.479 101.413L96.906 101.142L97.334 100.917L97.809 100.646L98.236 100.376L99.091 99.879L99.518 99.654L99.946 99.384L100.563 98.978L100.801 98.842L100.943 98.752L100.942 99.386L101.084 99.522L101.321 99.748L101.415 99.839Z" fill="#4E84D6"/>
<path fill-rule="evenodd" clip-rule="evenodd" d="M101.04 140.881L101.038 141.876L99.9939 142.01L98.9499 142.143L97.9529 142.277L96.9099 142.411L95.8659 142.544L94.8219 142.678L93.8249 142.812L92.7809 142.946L91.7379 143.079L90.7409 143.258L89.6969 143.392L89.1749 143.481L88.7009 143.571L87.1349 143.839L86.6599 143.929L86.1379 144.018L85.6159 144.108L85.1419 144.197H85.0939L84.6199 144.287L84.0979 144.376L83.6229 144.466L83.1009 144.6L82.5789 144.69L82.1039 144.824L81.5819 144.914L81.1079 145.049L80.5859 145.138L80.0639 145.273L79.5889 145.408L79.1139 145.497L78.5919 145.632L78.0699 145.767L77.5959 145.901L77.1209 146.036L76.5989 146.171L76.1239 146.306L75.6019 146.44L75.1269 146.62L74.6529 146.755L74.1309 146.89L73.6559 147.07L73.1809 147.205L72.6589 147.385L72.1839 147.565L71.7099 147.7L71.2349 147.88L70.7599 148.06L70.2849 148.24L69.9059 148.375L69.7629 148.42L69.2879 148.645L68.8139 148.825L68.3389 149.005L67.8639 149.23L67.3889 149.41L66.9139 149.636L66.4389 149.861L65.9649 150.086L65.4899 150.266L65.0149 150.492L64.7299 150.672L64.1129 150.942L63.5429 151.258L62.3079 151.844L61.4059 152.34L60.5039 152.79L59.6009 153.241L58.6989 153.737L57.8439 154.188L57.3689 154.458L56.9419 154.684L56.0389 155.18L55.1839 155.676L54.7569 155.946L54.3289 156.217L53.4269 156.713L52.9989 156.984L52.5719 157.209L52.1439 157.48L51.7169 157.75L51.2889 158.021L50.8619 158.246L50.0069 158.788L49.5799 159.058L49.1519 159.329L48.7719 159.645L48.4869 159.78L48.3439 159.87L47.9169 160.186L47.4889 160.457L47.0619 160.727L46.6819 160.998L46.2539 161.314L45.8259 161.585L45.3989 161.855L45.0189 162.171L44.5909 162.442L44.2109 162.713L43.7839 163.029L43.3559 163.344L42.9759 163.615L42.5479 163.931L42.1679 164.202L41.7409 164.518L41.3599 164.834L40.9329 165.15L40.5529 165.466L40.1719 165.782L39.7449 166.052L39.4119 166.323L39.3649 166.368L38.9839 166.684L38.5569 167L38.1769 167.361L37.7959 167.677L37.3689 167.993L36.9889 168.309L36.6079 168.67L36.1809 169.032L35.7999 169.348L35.4199 169.709L34.9919 170.07L34.6119 170.431L33.8519 171.108L32.2829 172.553L31.5699 173.231L31.4749 173.276L30.6669 174.043L29.8589 174.766L29.0509 175.488L28.2429 176.21L27.8149 176.572L27.4349 176.933L27.0069 177.294L26.1989 178.016L25.7709 178.377L25.3439 178.693V178.739L24.9159 179.055L24.4889 179.37L24.3459 179.506L20.9779 179.499L21.0729 179.409L21.5009 179.048L21.9279 178.732L22.3089 178.371L22.7359 178.055L23.1639 177.693L23.5439 177.332L23.9239 177.016H23.9719L24.3519 176.655L24.7799 176.339L25.2079 175.978L25.5879 175.662L26.0149 175.301L26.4429 174.94L26.8229 174.579L29.2949 172.457L30.1029 171.78L30.1979 171.689L30.9109 171.057L31.7189 170.38L32.5739 169.658L33.3819 168.981L33.8099 168.62L34.6179 167.942L35.0449 167.626L35.4729 167.265L35.8529 166.949L36.2809 166.633L36.7079 166.318L37.0889 165.956L37.5159 165.64L37.9439 165.37L38.3239 165.054L38.3719 165.009L38.7519 164.738L39.1789 164.422L39.5589 164.151L39.9869 163.835L40.4149 163.519L40.7949 163.249L41.2219 162.933L41.6499 162.662L42.0769 162.346L42.5049 162.076L42.9319 161.805L43.3599 161.489L43.7399 161.218L44.1679 160.948L44.5949 160.677L45.0229 160.406L45.4499 160.136L45.8779 159.82L46.3049 159.549L46.7329 159.279L47.1599 159.008L47.5879 158.783L47.7779 158.647L48.0149 158.512L48.4899 158.241L48.9179 157.971L49.3449 157.7L49.7729 157.429L50.1999 157.159L51.1029 156.663L51.5299 156.438L53.2879 155.4L53.7149 155.175L54.1419 154.904L54.6169 154.679L55.4719 154.183L56.4219 153.687L56.8499 153.462L57.2769 153.236L58.1789 152.74L59.0819 152.29L59.9839 151.794L60.8859 151.343L61.7889 150.892L62.7379 150.442L62.8329 150.397L63.6399 149.991L64.0199 149.811L64.5899 149.54L65.0649 149.315L65.5399 149.09L66.0149 148.865L66.4899 148.639L66.9639 148.459L67.4389 148.234L67.9609 148.054L68.4359 147.829L68.9109 147.649L69.3859 147.469L69.5279 147.378L69.9079 147.289L70.3829 147.063L70.8579 146.883L71.3799 146.749L71.8539 146.569L72.3769 146.389L72.8509 146.209L73.3259 146.074L73.8479 145.894L74.3229 145.759L74.8449 145.579L75.3199 145.444L75.8419 145.31L76.3159 145.175L76.8389 145.04L77.3129 144.905L77.8349 144.771L78.3099 144.636L78.8319 144.501L79.3539 144.366L79.8289 144.277L80.3509 144.142L80.8729 144.008L81.8689 143.783L82.3909 143.694L82.8659 143.559L83.3879 143.47L83.9099 143.38L84.4319 143.291L84.9539 143.156L85.4289 143.066L85.9509 142.977L86.4729 142.888L86.9949 142.798L87.9909 142.619L88.5129 142.53L89.0349 142.485L89.5569 142.396L91.5979 142.083L92.6409 141.95L93.6849 141.816L94.6819 141.637L95.7259 141.549L96.7699 141.37L97.8129 141.281L98.8569 141.148L99.9009 141.014L100.897 140.926L101.04 140.881Z" fill="#4E84D6"/>
<path fill-rule="evenodd" clip-rule="evenodd" d="M101.083 164.366L101.079 165.859L100.605 166.039L99.5129 166.444L98.3729 166.849L97.6609 167.164L96.1419 167.659L93.9109 168.469L92.7709 168.874L91.6789 169.279L90.5399 169.639L89.4479 170.089L88.9739 170.224L88.3089 170.449L87.1699 170.854L86.0779 171.304L85.0329 171.664L84.9379 171.709L83.8459 172.114L83.7509 172.159L83.2769 172.339L82.7069 172.564L82.1849 172.79L81.6149 173.015L81.0449 173.195L80.5229 173.42L79.9529 173.645L79.3839 173.87L78.8609 174.095L78.2909 174.366L78.0539 174.456L77.7219 174.591L77.1989 174.816L76.6299 175.041L76.1069 175.311L75.0149 175.762L73.9229 176.257L73.3529 176.482L72.7839 176.753L72.2139 176.978L71.0739 177.519L70.5519 177.789L69.9819 178.059L69.6969 178.195L69.4119 178.375L69.1269 178.51L68.8419 178.645L68.5569 178.781L68.2719 178.961L67.9869 179.096L67.4649 179.412L64.9509 179.407L65.1409 179.271L65.4259 179.091L65.7109 178.911L65.9479 178.73L66.2329 178.595L66.5179 178.414L66.8029 178.234L67.3729 177.964L67.6579 177.783L67.9429 177.603L68.2279 177.468L68.5129 177.332L68.7979 177.152L69.0829 177.017L69.3679 176.882L69.9379 176.566L70.5079 176.296L71.0779 176.025L71.6469 175.755L72.2169 175.485L72.7869 175.214L73.3569 174.989L74.4489 174.494L75.5409 173.998L76.0629 173.728L77.1549 173.277L77.4879 173.142L77.7249 173.007L78.8649 172.557L79.3869 172.332L79.9569 172.106L80.5259 171.836L81.0959 171.611L81.6179 171.386L82.1879 171.206L82.6629 171.026L82.7579 170.981L83.3279 170.756L83.8969 170.53L84.4199 170.305L85.5589 169.9L86.6509 169.45L87.7899 169.045L88.4549 168.82L88.8819 168.64L90.0219 168.235L91.1609 167.83L92.2529 167.425L93.3919 167.02L95.6229 166.255L97.1419 165.715L97.9019 165.445L98.9939 165.086L100.133 164.681L101.035 164.411L101.083 164.366Z" fill="#4E84D6"/>
<path fill-rule="evenodd" clip-rule="evenodd" d="M65.3489 7.47239C65.3489 6.77769 64.7779 6.21729 64.0919 6.21729L45.9059 6.25669C45.2089 6.25669 44.6489 6.82508 44.6489 7.51968C44.6489 8.21438 45.2199 8.77478 45.9059 8.77478L64.0919 8.73539C64.7889 8.73539 65.3489 8.16699 65.3489 7.47239Z" fill="white"/>
<path d="M54.6369 195.501C56.5659 195.498 58.1259 194.184 58.1219 192.567C58.1179 190.951 56.5509 189.643 54.6229 189.646C52.6939 189.65 51.1339 190.963 51.1379 192.58C51.1419 194.197 52.7079 195.505 54.6369 195.501Z" fill="white"/>
<path fill-rule="evenodd" clip-rule="evenodd" d="M26.6 26.7947C26.6 23.9058 24.243 21.5678 21.363 21.5782H20.041C17.16 21.5886 14.817 23.937 14.83 26.8155V28.1871C14.83 31.076 17.187 33.414 20.067 33.4036H21.389C24.269 33.3933 26.613 31.0448 26.6 28.1663V26.7947Z" fill="#3762AD"/>
<path d="M78.466 24.3973L30.96 24.4561L30.97 27.3571L78.477 27.2984L78.466 24.3973Z" fill="#3762AD"/>
<path d="M59.093 29.4313L31.25 29.4595L31.257 30.8535L59.099 30.8254L59.093 29.4313Z" fill="#3762AD"/>
<path fill-rule="evenodd" clip-rule="evenodd" d="M44.2489 68.6953L45.218 70.7123L47.345 71.6311L45.218 72.55L44.2489 74.567L43.28 72.55L41.153 71.6311L43.28 70.7123L44.2489 68.6953Z" fill="#4E84D6"/>
<path fill-rule="evenodd" clip-rule="evenodd" d="M18.2139 82.989L19.1829 85.006L21.3099 85.925L19.1829 86.844L18.2139 88.861L17.2449 86.844L15.1179 85.925L17.2449 85.006L18.2139 82.989Z" fill="#4E84D6"/>
<path fill-rule="evenodd" clip-rule="evenodd" d="M56.9119 98.94L57.8809 100.957L60.0079 101.876L57.8809 102.795L56.9119 104.812L55.9429 102.795L53.8149 101.876L55.9429 100.957L56.9119 98.94Z" fill="#4E84D6"/>
<path fill-rule="evenodd" clip-rule="evenodd" d="M77.546 73.8003L78.057 74.8646L79.18 75.3494L78.057 75.8342L77.546 76.899L77.035 75.8342L75.912 75.3494L77.035 74.8646L77.546 73.8003Z" fill="#4E84D6"/>
<path fill-rule="evenodd" clip-rule="evenodd" d="M92.1009 73.9937L92.6119 75.0579L93.7339 75.5428L92.6119 76.028L92.1009 77.092L91.5889 76.028L90.4669 75.5428L91.5889 75.0579L92.1009 73.9937Z" fill="#4E84D6"/>
<path fill-rule="evenodd" clip-rule="evenodd" d="M47.3439 48.186L47.856 49.2503L48.978 49.7352L47.856 50.22L47.3439 51.2843L46.8329 50.22L45.71 49.7352L46.8329 49.2503L47.3439 48.186Z" fill="#4E84D6"/>
<path fill-rule="evenodd" clip-rule="evenodd" d="M28.151 120.242L28.501 120.97L29.269 121.302L28.501 121.634L28.151 122.363L27.8 121.634L27.032 121.302L27.8 120.97L28.151 120.242Z" fill="#4E84D6"/>
<path fill-rule="evenodd" clip-rule="evenodd" d="M53.8139 121.345L54.1639 122.074L54.9319 122.406L54.1639 122.738L53.8139 123.466L53.4629 122.738L52.6949 122.406L53.4629 122.074L53.8139 121.345Z" fill="#FFDCF6"/>
<path fill-rule="evenodd" clip-rule="evenodd" d="M57.62 37.2559L57.97 37.9846L58.739 38.3166L57.97 38.6486L57.62 39.3774L57.27 38.6486L56.501 38.3166L57.27 37.9846L57.62 37.2559Z" fill="#4E84D6"/>
<path fill-rule="evenodd" clip-rule="evenodd" d="M18.2149 108.417L18.5989 109.29L19.4419 109.687L18.5989 110.085L18.2149 110.958L17.8309 110.085L16.9879 109.687L17.8309 109.29L18.2149 108.417Z" fill="#4E84D6"/>
<path fill-rule="evenodd" clip-rule="evenodd" d="M90.8699 88.423L90.9559 89.98L92.0999 91.101L90.4569 91.183L89.2749 92.268L89.1879 90.711L88.0439 89.59L89.6869 89.507L90.8699 88.423Z" fill="#4E84D6"/>
<path fill-rule="evenodd" clip-rule="evenodd" d="M94.55 172.472L98.2 169.492L89.472 157.944L85.823 160.923L94.55 172.472Z" fill="#1B305D"/>
<path fill-rule="evenodd" clip-rule="evenodd" d="M124.037 217.005L132.837 209.821L100.103 166.504L91.303 173.689L124.037 217.005Z" fill="#4E84D6"/>
<path fill-rule="evenodd" clip-rule="evenodd" d="M124.038 217.005L130.934 211.375L98.2009 168.058L91.3049 173.688L124.038 217.005Z" fill="#3762AD"/>
<path fill-rule="evenodd" clip-rule="evenodd" d="M93.585 176.708L102.385 169.524L100.102 166.503L91.302 173.687L93.585 176.708Z" fill="#4E84D6"/>
<path d="M98.5309 133.023C96.1529 152.843 78.7479 167.052 59.6589 164.759C40.5689 162.466 27.0209 144.539 29.3999 124.719C31.7789 104.899 49.1839 90.69 68.2729 92.983C87.3619 95.276 100.91 113.201 98.5309 133.023ZM21.6409 123.787C18.7279 148.056 35.3169 170.007 58.6919 172.815C82.0669 175.623 103.378 158.224 106.29 133.955C109.203 109.686 92.6149 87.735 69.2399 84.927C45.8649 82.119 24.5539 99.518 21.6409 123.787Z" fill="#3762AD"/>
<path d="M94.4929 132.537C92.3409 150.466 76.9279 163.36 60.0689 161.335C43.2089 159.309 31.2849 143.132 33.4369 125.203C35.5879 107.274 51.0019 94.38 67.8609 96.405C84.7209 98.43 96.6449 114.608 94.4929 132.537ZM26.5839 124.38C23.9489 146.334 38.5489 166.142 59.1939 168.622C79.8389 171.102 98.7109 155.314 101.346 133.36C103.981 111.406 89.3799 91.597 68.7359 89.118C48.0909 86.638 29.2189 102.426 26.5839 124.38Z" fill="#4E84D6"/>
<path fill-rule="evenodd" clip-rule="evenodd" d="M69.2879 111.053C63.4899 110.23 58.8999 114.887 58.9699 122.098C59.0219 127.479 65.3819 139.351 65.3819 139.351C65.3819 139.351 75.2469 129.176 76.4289 124.801C78.8699 115.78 73.9319 111.711 69.2879 111.053ZM68.5099 116.073C71.0079 116.317 72.8379 118.564 72.5919 121.09C72.3459 123.617 70.1179 125.469 67.6199 125.226C65.1219 124.983 63.2929 122.736 63.5379 120.209C63.7839 117.683 66.0119 115.83 68.5099 116.073Z" fill="#1B305D"/>
</svg>
