<svg width="166" height="219" viewBox="0 0 166 219" fill="none" xmlns="http://www.w3.org/2000/svg">
<path d="M95.1626 29.1317C95.1626 30.0377 89.4529 30.7737 82.4146 30.7737C75.3763 30.7737 69.6665 30.0377 69.6665 29.1317C69.6665 28.2258 75.3763 27.4897 82.4146 27.4897C89.4529 27.4897 95.1626 28.2258 95.1626 29.1317Z" fill="#3762AD"/>
<path d="M82.4148 3.96425C93.6647 3.96425 102.809 13.1226 102.809 24.39C102.809 35.6574 93.6506 44.8157 82.4148 44.8157C71.1648 44.8157 62.0207 35.6574 62.0207 24.39C62.0066 13.1367 71.1648 3.96425 82.4148 3.96425ZM82.4148 0.991699C69.5112 0.991699 59.0527 11.4664 59.0527 24.39C59.0527 37.3135 69.5112 47.7882 82.4148 47.7882C95.3183 47.7882 105.777 37.3135 105.777 24.39C105.777 11.4806 95.3183 0.991699 82.4148 0.991699Z" fill="#1B305D"/>
<path d="M87 35H78V65H87V35Z" fill="#3762AD"/>
<path d="M95.1626 29.1318H69.6523V38.2335H95.1626V29.1318Z" fill="#1B305D"/>
<path d="M135.218 52.8757L119.998 68.1216L124.165 72.2953L139.386 57.0495L135.218 52.8757Z" fill="#3762AD"/>
<path d="M134.066 45.4156L129.519 49.9697L142.281 62.7513L146.828 58.1971L134.066 45.4156Z" fill="#1B305D"/>
<path d="M146.833 58.1921C146.381 58.645 143.159 56.1538 139.625 52.6292C136.106 49.1046 133.605 45.8631 134.071 45.4101C134.523 44.9571 137.746 47.4484 141.279 50.9872C144.798 54.5118 147.286 57.7391 146.833 58.1921Z" fill="#3762AD"/>
<path d="M29.6097 52.8818L25.4424 57.0562L40.6647 72.2999L44.832 68.1255L29.6097 52.8818Z" fill="#3762AD"/>
<path d="M30.7417 45.4099L17.98 58.1914L22.527 62.7455L35.2888 49.964L30.7417 45.4099Z" fill="#1B305D"/>
<path d="M17.9818 58.1921C18.4341 58.645 21.6564 56.1538 25.1897 52.6292C28.7089 49.1046 31.1963 45.8631 30.744 45.4101C30.2918 44.9571 27.0694 47.4484 23.5361 50.9872C20.017 54.5118 17.5295 57.7391 17.9818 58.1921Z" fill="#3762AD"/>
<path d="M159.621 135.19C159.621 177.556 125.337 211.879 83.0604 211.879C40.7836 211.879 6.5 177.556 6.5 135.19C6.5 92.8222 40.7836 58.5 83.0604 58.5C125.337 58.5 159.621 92.8357 159.621 135.19Z" stroke="#1B305D" stroke-width="13"/>
<path d="M82.3159 200.663C82.3159 200.663 81.5668 200.634 80.1676 200.564C79.8143 200.549 79.4327 200.535 78.9805 200.507C78.5141 200.465 77.9911 200.422 77.4541 200.365C76.9029 200.309 76.3093 200.266 75.6874 200.196C75.0797 200.111 74.4296 200.012 73.7371 199.913C70.9952 199.488 67.674 198.823 63.9993 197.634C60.3247 196.459 56.2827 194.803 52.1417 192.495C48.0006 190.202 43.8172 187.187 39.8458 183.535C37.8813 181.681 35.9451 179.699 34.1502 177.505C33.2174 176.443 32.3836 175.283 31.5073 174.122C31.0833 173.542 30.6876 172.933 30.2777 172.339C29.8679 171.744 29.458 171.135 29.0905 170.498C25.9671 165.53 23.4797 159.953 21.812 154.05C20.964 151.106 20.3987 148.063 19.9747 145.005C19.579 141.934 19.4518 138.834 19.4659 135.734C19.5507 134.134 19.5648 132.747 19.7344 131.133C19.8475 129.562 20.0877 128.047 20.3139 126.519C20.8509 123.49 21.5293 120.503 22.4762 117.615C24.3418 111.84 26.9988 106.461 30.2353 101.719C30.631 101.11 31.0409 100.53 31.4649 99.9639C31.8889 99.3977 32.2988 98.8174 32.7369 98.2653C33.6273 97.1754 34.4894 96.0854 35.4222 95.0663C37.2454 92.9996 39.1957 91.1453 41.1744 89.4184C45.1599 86.0212 49.3009 83.2751 53.343 81.2227C57.3992 79.156 61.314 77.7264 64.8615 76.7355C68.3947 75.7305 71.5747 75.2209 74.1893 74.9237C74.8395 74.8529 75.4613 74.7821 76.0408 74.7255C76.6202 74.6972 77.1714 74.6547 77.6802 74.6264C78.6978 74.5557 79.5599 74.5132 80.2666 74.5273C81.6799 74.5132 82.4289 74.5132 82.4289 74.5132C82.4289 74.5132 81.6799 74.5415 80.2807 74.6123C79.574 74.6264 78.7119 74.7114 77.6943 74.8104C77.1855 74.8671 76.6485 74.9095 76.069 74.9661C75.4896 75.0511 74.8818 75.136 74.2317 75.2351C71.6454 75.6314 68.5219 76.2684 65.0593 77.3867C61.5967 78.4907 57.7949 80.062 53.8942 82.2418C49.9934 84.4075 46.0644 87.2527 42.3191 90.6924C40.4677 92.4334 38.6445 94.3019 36.9627 96.3827C36.0864 97.3877 35.3091 98.4918 34.4753 99.5676C34.0795 100.12 33.7121 100.686 33.3163 101.252C32.9206 101.818 32.539 102.384 32.1857 102.979C29.246 107.664 26.914 112.916 25.3594 118.465C24.5679 121.239 24.0309 124.098 23.6352 126.986C23.4797 128.43 23.3101 129.888 23.2536 131.317C23.1405 132.704 23.1829 134.318 23.1546 135.72C23.2536 138.635 23.4938 141.537 23.9602 144.397C24.469 147.242 25.105 150.059 25.9954 152.762C27.7479 158.184 30.2636 163.251 33.3022 167.71C33.6697 168.276 34.0513 168.828 34.4611 169.352C34.8569 169.89 35.2384 170.428 35.6624 170.951C36.5104 171.971 37.3019 173.004 38.1923 173.952C39.9024 175.906 41.7538 177.647 43.6052 179.26C47.3505 182.445 51.2513 185.036 55.0672 186.947C58.8831 188.886 62.5578 190.23 65.8932 191.151C69.2145 192.085 72.1965 192.566 74.6557 192.835C75.2634 192.906 75.857 192.962 76.3941 193.019C76.9311 193.047 77.4258 193.076 77.8922 193.104C78.3586 193.132 78.7826 193.161 79.1783 193.175C79.574 193.203 79.998 193.189 80.3372 193.189C81.7364 193.203 82.4996 193.203 82.4996 193.203L82.3159 200.663Z" fill="#3762AD"/>
<path d="M54.7986 130.949V143.363C54.7986 148.19 51.8448 152.026 46.4459 152.026C41.0329 152.026 38.0933 148.204 38.0933 143.363V130.949C38.0933 125.698 40.6372 121.409 46.4459 121.409C52.2688 121.409 54.7986 125.698 54.7986 130.949ZM41.3721 130.609V143.349C41.3721 146.675 43.1529 148.926 46.4459 148.926C49.7248 148.926 51.5197 146.675 51.5197 143.349V130.609C51.5197 127.028 50.064 124.452 46.4459 124.452C42.8279 124.452 41.3721 127.028 41.3721 130.609Z" fill="#3762AD"/>
<path d="M75.5886 130.949V143.363C75.5886 148.19 72.6348 152.026 67.2359 152.026C61.823 152.026 58.8691 148.204 58.8691 143.363V130.949C58.8691 125.698 61.4131 121.409 67.2359 121.409C73.0588 121.409 75.5886 125.698 75.5886 130.949ZM62.1622 130.609V143.349C62.1622 146.675 63.9571 148.926 67.2359 148.926C70.529 148.926 72.3097 146.675 72.3097 143.349V130.609C72.3097 127.028 70.854 124.452 67.2359 124.452C63.6179 124.452 62.1622 127.028 62.1622 130.609Z" fill="#3762AD"/>
<path d="M82.4147 139.527C81.1709 139.527 80.1675 138.48 80.1675 137.234C80.1675 136.031 81.1709 135.026 82.4147 135.026C83.6301 135.026 84.6194 136.031 84.6194 137.234C84.6194 138.48 83.616 139.527 82.4147 139.527ZM82.4147 152.026C81.1709 152.026 80.1675 150.993 80.1675 149.733C80.1675 148.53 81.1709 147.525 82.4147 147.525C83.6301 147.525 84.6194 148.53 84.6194 149.733C84.6194 150.979 83.616 152.026 82.4147 152.026Z" fill="#3762AD"/>
<path d="M105.947 130.949V143.363C105.947 148.19 102.993 152.026 97.5939 152.026C92.195 152.026 89.2412 148.204 89.2412 143.363V130.949C89.2412 125.698 91.771 121.409 97.5939 121.409C103.417 121.409 105.947 125.698 105.947 130.949ZM92.5201 130.609V143.349C92.5201 146.675 94.315 148.926 97.5939 148.926C100.873 148.926 102.668 146.675 102.668 143.349V130.609C102.668 127.028 101.212 124.452 97.5939 124.452C93.9758 124.452 92.5201 127.028 92.5201 130.609Z" fill="#3762AD"/>
<path d="M126.736 130.949V143.363C126.736 148.19 123.782 152.026 118.383 152.026C112.97 152.026 110.031 148.204 110.031 143.363V130.949C110.031 125.698 112.561 121.409 118.383 121.409C124.192 121.409 126.736 125.698 126.736 130.949ZM113.31 130.609V143.349C113.31 146.675 115.09 148.926 118.383 148.926C121.662 148.926 123.457 146.675 123.457 143.349V130.609C123.457 127.028 122.002 124.452 118.383 124.452C114.765 124.452 113.31 127.028 113.31 130.609Z" fill="#3762AD"/>
</svg>
