<svg width="161" height="258" viewBox="0 0 161 258" fill="none" xmlns="http://www.w3.org/2000/svg">
<path opacity="0.38" d="M-262.247 223.51C-311.38 210.521 -356.498 173.271 -371.396 122.159C-386.268 71.0462 -364.264 8.02881 -317.588 -12.7389C-296.613 -22.0778 -273.077 -22.6862 -251.363 -29.9615C-184.215 -52.5282 -147.524 -132.954 -82.0656 -160.52C-49.7856 -174.119 -12.249 -173.034 19.2913 -157.61C50.8316 -142.187 75.8736 -112.636 86.9418 -77.8728C95.9495 -49.5123 96.0552 -18.0829 108.893 8.61082C118.746 29.0611 135.335 45.0668 146.192 64.935C169.544 107.608 162.147 165.043 132.614 203.219C103.082 241.394 54.5562 260.469 7.95898 257.744C-15.2868 256.395 -38.0571 249.94 -59.2688 239.86C-77.8919 230.997 -95.7489 211.949 -116.855 212.399C-137.776 212.849 -160.309 224.992 -181.494 227.743C-208.385 231.209 -235.884 230.468 -262.247 223.51Z" fill="#1A5BBA"/>
</svg>
