<svg width="36" height="35" viewBox="0 0 36 35" fill="none" xmlns="http://www.w3.org/2000/svg">
<path d="M8.94733 4.44338C12.3235 -0.390299 19.8243 -1.49089 24.3473 2.18601C23.2897 3.61215 22.2734 5.06969 21.1612 6.45286C20.0937 7.7815 19.2724 9.29853 18.0528 10.5082C17.4794 10.4652 17.091 10.057 16.6498 9.77281C15.027 8.72345 13.3927 7.68731 11.8244 6.56028C10.8593 5.86456 9.73889 5.37541 8.94733 4.44338Z" fill="#0FA6C4"/>
<path d="M22.1128 33.7742C20.6007 33.5858 19.2374 32.943 17.8509 32.3729C16.0232 31.0558 14.2038 29.7321 12.8057 27.9275C13.1858 27.8036 13.5758 27.7028 13.9443 27.5491C17.3684 26.118 20.7957 24.6935 24.2033 23.2277C25.013 22.879 25.9798 22.8195 26.578 22.0396C26.6457 22.0462 26.7135 22.0544 26.7812 22.061C26.7796 22.261 26.7779 22.4626 26.7763 22.6626C25.8244 24.8059 24.8197 26.9278 23.9405 29.0992C23.3126 30.6493 22.3938 32.0886 22.1128 33.7742Z" fill="#8AC35D"/>
<path d="M6.38879 13.0582C6.49456 12.9607 6.60032 12.8615 6.70608 12.764C10.3169 11.1495 14.1177 10.581 18.0441 10.7265L18.0557 10.7513C18.0309 10.9182 18.0061 11.0851 17.9814 11.252C17.6161 10.8223 17.5401 11.323 17.4377 11.4602C14.7523 15.0528 11.9578 18.5578 9.15019 22.0546L9.14192 22.0612C9.07582 22.0596 9.01137 22.0579 8.94527 22.0546C8.61972 19.7592 7.86121 17.5713 7.26299 15.3437C7.05477 14.567 7.14731 13.6366 6.38879 13.0582Z" fill="#95C95C"/>
<path d="M22.1128 33.7741C22.3921 32.0885 23.3125 30.6491 23.9405 29.1007C24.8213 26.9293 25.826 24.8074 26.7763 22.6641C27.5579 23.0458 27.6769 23.8688 27.9578 24.548C28.9675 26.9838 29.9442 29.4345 31.0778 31.8158C28.399 33.8782 25.3815 34.3971 22.1128 33.7741Z" fill="#79B95B"/>
<path d="M12.3879 33.9629C9.08779 34.2603 6.16445 33.3993 3.69391 31.142C5.20433 29.0813 6.40903 26.8272 7.68314 24.6227C8.12602 23.8576 8.8994 23.2445 8.94733 22.2629C9.01178 22.2629 9.07788 22.2612 9.14233 22.2612C9.40178 22.8347 9.83474 23.3469 9.7769 24.0344C9.79508 24.1666 9.80334 24.3005 9.83474 24.4294C10.6098 27.627 11.7633 30.7239 12.3879 33.9629Z" fill="#60A558"/>
<path d="M18.0445 10.7263C14.1164 10.5809 10.3172 11.1494 6.70641 12.7639C6.45357 9.72157 6.94602 6.8792 8.94725 4.44336C9.73716 5.37539 10.8592 5.86454 11.8243 6.55861C13.3926 7.68564 15.0269 8.72178 16.6497 9.77114C17.091 10.057 17.481 10.4636 18.0527 10.5065C18.0511 10.5792 18.0478 10.6536 18.0445 10.7263Z" fill="#1CBAD5"/>
<path d="M18.0445 10.7265C18.0478 10.6538 18.0511 10.5811 18.0544 10.5068C19.274 9.2971 20.0953 7.78007 21.1628 6.45142C22.2733 5.06825 23.2897 3.61071 24.3489 2.18457C26.5914 3.72639 27.9977 5.83172 28.596 8.48074C28.2291 8.49066 27.8738 8.51049 27.5069 8.60138C25.6693 9.05748 23.8052 9.41443 21.9825 9.92341C20.8753 10.2324 19.659 10.201 18.6708 10.9116C18.5353 10.9133 18.4014 10.9166 18.2659 10.9182C18.1965 10.862 18.1271 10.8059 18.0594 10.7497L18.0445 10.7265Z" fill="#2296B6"/>
<path d="M8.94751 22.2642C8.89959 23.2441 8.1262 23.8589 7.68332 24.624C6.40921 26.8285 5.20451 29.0809 3.69409 31.1416C1.54248 29.3552 0.379098 27.0466 0.0684204 24.2869C1.66312 24.2323 3.13223 23.6027 4.66578 23.2739C6.10019 22.9681 7.52137 22.6029 8.94751 22.2642Z" fill="#6CAF59"/>
<path d="M29.034 12.6812C31.9408 14.1023 33.9701 16.3002 34.9781 19.4004C34.3964 19.3822 33.8759 19.5921 33.3273 19.7524C31.559 20.2713 29.9478 21.2314 28.1234 21.5834C27.7516 21.6544 27.388 21.7668 27.3781 22.256C27.1963 22.2493 27.0393 22.1981 26.9584 22.013C26.9518 21.9618 26.9435 21.9089 26.9369 21.856C27.9135 19.5855 28.3862 17.186 28.7464 14.7567C28.8423 14.066 28.9381 13.3736 29.034 12.6812Z" fill="#619A58"/>
<path d="M26.9585 22.0132C27.0378 22.1983 27.1948 22.2495 27.3783 22.2561C30.0223 23.2873 32.5557 24.5845 35.2476 25.4984C34.7601 28.1986 33.2976 30.256 31.0799 31.816C29.9446 29.4331 28.9696 26.984 27.9599 24.5482C27.679 23.8706 27.56 23.046 26.7784 22.6643C26.78 22.4643 26.7817 22.2627 26.7833 22.0628C26.8412 22.0462 26.9007 22.0297 26.9585 22.0132Z" fill="#6CAF59"/>
<path d="M29.0339 12.6812C28.9381 13.3736 28.8422 14.0644 28.7464 14.7568C28.0259 14.4891 27.307 14.2197 26.5865 13.9537C23.9325 12.9754 21.2488 12.0797 18.6675 10.9114C19.6558 10.2024 20.872 10.2322 21.9792 9.92313C23.802 9.41415 25.666 9.0572 27.5037 8.6011C27.8705 8.51021 28.2275 8.49038 28.5927 8.48047C29.0537 9.84877 28.9959 11.27 29.0339 12.6812Z" fill="#188CAF"/>
<path d="M6.38888 13.0581C7.1474 13.6365 7.05485 14.5669 7.26307 15.3436C7.85964 17.5695 8.61981 19.7591 8.94536 22.0545C6.84002 20.9011 4.72643 19.7608 2.63431 18.5809C2.24762 18.3628 1.76177 18.1942 1.60974 17.6819C2.5897 15.5055 4.31164 14.0992 6.38888 13.0581Z" fill="#8AC35D"/>
<path d="M1.6116 17.6802C1.76198 18.1941 2.24782 18.361 2.63617 18.5792C4.72663 19.7591 6.84023 20.8993 8.94722 22.0528C9.01332 22.0561 9.07777 22.0578 9.14387 22.0594C9.14552 22.1272 9.14552 22.1949 9.14387 22.261C9.07942 22.261 9.01332 22.2627 8.94887 22.2627C7.52273 22.6014 6.10154 22.9666 4.66714 23.274C3.13193 23.6029 1.66448 24.2325 0.0697791 24.287C-0.183059 21.9057 0.23338 19.6814 1.6116 17.6802Z" fill="#79B95B"/>
<path d="M35.2475 25.4984C32.5555 24.5829 30.0222 23.2873 27.3781 22.2561C27.388 21.7686 27.7516 21.6562 28.1234 21.5835C29.9478 21.2315 31.5574 20.2714 33.3273 19.7525C33.8775 19.5906 34.3981 19.3823 34.9781 19.4005C35.6953 21.4051 35.8573 23.436 35.2475 25.4984Z" fill="#60A558"/>
<path d="M12.3877 33.9629C11.7631 30.7256 10.6096 27.6271 9.83457 24.4294C9.80317 24.3005 9.79656 24.1667 9.77673 24.0361C10.1915 24.1287 10.3188 24.5154 10.5072 24.8046C11.2128 25.8919 11.9597 26.9446 12.8058 27.9279C14.2039 29.7324 16.0233 31.0561 17.851 32.3732C16.1192 33.2077 14.351 33.9183 12.3877 33.9629Z" fill="#619A58"/>
<path d="M12.8059 27.9276C11.9598 26.946 11.2112 25.8917 10.5072 24.8043C10.3188 24.5135 10.1916 24.1268 9.77679 24.0359C9.83462 23.3485 9.40166 22.8362 9.14221 22.2627C9.14386 22.195 9.14386 22.1272 9.14221 22.0611L9.15047 22.0545C10.299 22.1289 11.2608 21.4877 12.3167 21.2117C14.2849 20.6961 16.2481 20.1524 18.1419 19.3906C18.3353 19.4452 18.5303 19.498 18.722 19.5542C21.3297 20.3177 23.8829 21.2712 26.5319 21.8959C26.5418 21.9454 26.5567 21.995 26.5765 22.0413C25.9783 22.8196 25.0115 22.8808 24.2018 23.2295C20.7926 24.6969 17.3652 26.1198 13.9428 27.5509C13.5776 27.7029 13.186 27.802 12.8059 27.9276Z" fill="#96C95B"/>
<path d="M26.5783 22.0397C26.5585 21.9935 26.5436 21.9439 26.5337 21.8943L26.575 21.8447C26.6956 21.848 26.8163 21.8513 26.9369 21.8563C26.9435 21.9092 26.9518 21.9604 26.9584 22.0133C26.8989 22.0298 26.8411 22.0463 26.7816 22.0612C26.7138 22.0546 26.6461 22.048 26.5783 22.0397Z" fill="#216D98"/>
<path d="M18.1416 19.389C16.2495 20.1508 14.2846 20.6945 12.3164 21.2101C11.2604 21.486 10.297 22.1272 9.15015 22.0529C11.9578 18.5577 14.7523 15.0511 17.4376 11.4584C17.5401 11.3213 17.6178 10.8206 17.9813 11.2502C18.016 11.6815 18.0788 12.1145 18.0854 12.5475C18.1119 14.828 18.1251 17.1085 18.1416 19.389Z" fill="#A3CE5B"/>
<path d="M18.1421 19.3888C18.1239 17.1083 18.1123 14.8278 18.0842 12.5473C18.0793 12.1143 18.0165 11.6814 17.9801 11.25C18.0065 11.0831 18.0313 10.9162 18.0561 10.751C18.1255 10.8072 18.1949 10.8633 18.2627 10.9195C18.2594 11.1773 18.423 11.3442 18.5701 11.5326C21.2422 14.9666 23.9078 18.4072 26.5733 21.8461L26.532 21.8957C23.8813 21.271 21.3298 20.3175 18.7221 19.554C18.5304 19.4962 18.3354 19.4433 18.1421 19.3888Z" fill="#216D98"/>
<path d="M26.575 21.8448C23.9078 18.4059 21.2423 14.967 18.5718 11.5313C18.4247 11.3429 18.2611 11.176 18.2644 10.9182C18.3999 10.9166 18.5338 10.9133 18.6693 10.9116C21.2505 12.08 23.9343 12.9756 26.5882 13.9539C27.3087 14.22 28.0292 14.4894 28.7481 14.7571C28.3878 17.1847 27.9152 19.5841 26.9386 21.8564C26.8163 21.8531 26.6956 21.8498 26.575 21.8448Z" fill="#1B7DA1"/>
</svg>
