<svg width="43" height="23" viewBox="0 0 43 23" fill="none" xmlns="http://www.w3.org/2000/svg">
<path fill-rule="evenodd" clip-rule="evenodd" d="M29.4817 22.4255C36.5479 22.4255 42.2762 17.4091 42.2762 11.2211C42.2762 5.03301 36.5479 0.0166016 29.4817 0.0166016C26.3148 0.0166016 23.4167 1.02415 21.1826 2.69316C18.9484 1.02416 16.0503 0.0166149 12.8834 0.0166149C5.81719 0.0166149 0.0888672 5.03303 0.0888672 11.2211C0.0888672 17.4091 5.81719 22.4256 12.8834 22.4256C16.0503 22.4256 18.9484 21.418 21.1826 19.749C23.4168 21.418 26.3149 22.4255 29.4817 22.4255Z" fill="#ED0006"/>
<path fill-rule="evenodd" clip-rule="evenodd" d="M21.1826 19.749C23.9337 17.6939 25.6781 14.6359 25.6781 11.2211C25.6781 7.80627 23.9337 4.74826 21.1826 2.69316C23.4168 1.02415 26.3149 0.0166016 29.4817 0.0166016C36.548 0.0166016 42.2763 5.03301 42.2763 11.2211C42.2763 17.4091 36.548 22.4255 29.4817 22.4255C26.3149 22.4255 23.4168 21.418 21.1826 19.749Z" fill="#F9A000"/>
<path fill-rule="evenodd" clip-rule="evenodd" d="M21.1827 19.7487C23.9336 17.6936 25.6779 14.6356 25.6779 11.2209C25.6779 7.80617 23.9336 4.74822 21.1827 2.69312C18.4317 4.74822 16.6874 7.80617 16.6874 11.2209C16.6874 14.6356 18.4317 17.6936 21.1827 19.7487Z" fill="#FF5E00"/>
</svg>
