<svg width="56" height="34" viewBox="0 0 56 34" fill="none" xmlns="http://www.w3.org/2000/svg">
<path d="M44.1318 6.01942C43.9581 9.05698 46.8765 12.1988 50.0778 12.4221C53.3189 12.6455 55.195 14.3677 55.2248 17.1373C55.2546 20.1004 53.3884 21.8375 49.9339 22.0609C45.6654 22.3388 43.6354 24.3589 43.2781 28.6968C43.0249 31.7394 40.8609 33.7446 38.1162 33.4815C35.5105 33.2333 33.6989 30.7864 34.0314 27.9772C34.3639 25.163 36.7265 23.53 39.7591 24.0164C43.1689 24.5624 46.5737 21.371 46.0327 18.0158C45.7746 16.4225 46.8963 14.8293 45.7349 13.2262C44.3799 11.3649 43.0895 9.69724 40.4043 9.94045C37.332 10.2134 34.9 8.11891 34.8206 5.34937C34.7511 2.79326 37.1434 0.326489 39.6598 0.366196C42.4641 0.405902 44.3204 2.75355 44.1318 6.01942Z" fill="#EC6E2D"/>
<path d="M34.1654 17.8768C34.0612 17.1224 34.0115 16.8742 33.9966 16.631C33.8328 13.8466 35.6196 11.5982 38.1559 11.3798C40.2951 11.1962 42.876 13.4049 43.1689 15.6632C43.4915 18.1995 41.6898 20.7308 39.0394 20.9045C35.7189 21.1229 33.4507 22.5771 32.3736 25.6742C32.0113 26.7116 32.1403 27.9176 31.9865 29.0394C31.5993 31.9379 29.8473 33.5907 27.316 33.4865C24.8641 33.3922 23.0872 31.4515 22.9334 28.6969C22.6902 24.3838 20.2879 22.051 16.1038 22.0411C13.7314 22.0361 11.7709 20.4181 11.3887 18.1449C10.9718 15.6632 12.3913 13.3503 14.7588 12.6455C17.4191 11.8563 20.1688 14.0799 20.0944 16.9636C20.01 20.3486 21.2161 22.8402 24.199 23.7485C26.4127 24.4235 28.9688 24.6964 31.1725 23.3514C33.3613 22.0212 34.6121 20.0954 34.1654 17.8768Z" fill="#AD3D91"/>
<path d="M8.78295 16.8099C8.87726 20.1899 7.16987 22.2795 4.3656 22.2199C1.62088 22.1604 -0.443864 19.5844 0.082248 16.4674C0.434644 14.3828 1.70525 12.8144 4.03305 12.462C9.27929 11.6729 10.4655 10.4072 11.0264 5.05675C11.4582 0.907415 15.1906 -1.2417 18.4019 0.753552C19.9752 1.73133 20.1986 3.16076 20.1837 4.80362C20.149 8.47648 23.7871 12.1642 27.3408 12.1047C29.8771 12.065 31.4008 13.281 31.7979 15.6683C32.185 17.9912 30.6464 20.4629 28.2938 21.2868C26.6658 21.8626 24.0005 20.7011 23.1071 18.9094C22.6406 17.9664 22.3328 16.9836 22.5065 15.8222C23.0475 12.189 20.2284 9.27558 16.6995 9.68257C16.3719 9.72228 16.0393 9.75702 15.7118 9.75206C10.7484 9.66272 8.64398 11.8069 8.78295 16.8099Z" fill="#72297E"/>
</svg>
