<svg width="22" height="22" viewBox="0 0 22 22" fill="none" xmlns="http://www.w3.org/2000/svg">
<path fill-rule="evenodd" clip-rule="evenodd" d="M6.36892 20.9511L6.79738 18.5856L5.84292 18.5662H1.28516L4.45264 1.10984C4.46251 1.05698 4.49441 1.00791 4.54099 0.973002C4.58781 0.938095 4.64748 0.918945 4.7099 0.918945H12.395C14.9465 0.918945 16.7072 1.38032 17.6263 2.29111C18.0573 2.71838 18.3318 3.165 18.4646 3.6563C18.604 4.17193 18.6062 4.7879 18.4704 5.53931L18.4605 5.59396V6.07549L18.8915 6.28773C19.2543 6.45508 19.5428 6.64658 19.764 6.8658C20.1326 7.23123 20.3711 7.6956 20.4718 8.24594C20.576 8.81204 20.5416 9.48586 20.3711 10.2486C20.1744 11.1259 19.8565 11.8901 19.4271 12.5152C19.0324 13.0913 18.5294 13.5692 17.932 13.9395C17.3617 14.2913 16.6842 14.5584 15.9182 14.7294C15.1758 14.8973 14.3294 14.9821 13.4011 14.9821H12.803C12.3755 14.9821 11.9601 15.1159 11.634 15.3559C11.3069 15.6009 11.0908 15.9356 11.0244 16.3016L10.9792 16.5146L10.2221 20.6842L10.1879 20.8372C10.1788 20.8857 10.1631 20.9098 10.1402 20.9262C10.1198 20.9411 10.0904 20.9511 10.0617 20.9511H6.36892Z" fill="#28356A"/>
<path fill-rule="evenodd" clip-rule="evenodd" d="M19.2998 5.64966C19.2771 5.77712 19.2507 5.90738 19.2213 6.04122C18.2079 10.564 14.7405 12.1265 10.3121 12.1265H8.05735C7.51574 12.1265 7.05927 12.4682 6.97505 12.9326L5.49366 21.0999C5.43881 21.4049 5.70916 21.6796 6.06304 21.6796H10.0622C10.5357 21.6796 10.938 21.3806 11.0125 20.9747L11.0518 20.7981L11.8048 16.6449L11.8532 16.4171C11.9269 16.0098 12.3301 15.7106 12.8035 15.7106H13.4016C17.2761 15.7106 20.3094 14.3434 21.1959 10.3867C21.5661 8.73389 21.3744 7.35374 20.3945 6.38312C20.098 6.09049 19.7301 5.84753 19.2998 5.64966Z" fill="#298FC2"/>
<path fill-rule="evenodd" clip-rule="evenodd" d="M18.2392 5.28223C18.0843 5.24293 17.9246 5.20743 17.7607 5.17531C17.596 5.14399 17.4273 5.11627 17.2535 5.09193C16.6456 5.00656 15.9794 4.96606 15.2659 4.96606H9.24235C9.09387 4.96606 8.95296 4.99519 8.82697 5.04785C8.54905 5.16394 8.34273 5.39253 8.2927 5.67239L7.01121 12.7269L6.97449 12.9326C7.05871 12.4682 7.51518 12.1265 8.05678 12.1265H10.3116C14.7399 12.1265 18.2073 10.5632 19.2208 6.04122C19.2511 5.90737 19.2765 5.77712 19.2993 5.64965C19.0429 5.53137 18.7652 5.43023 18.4662 5.34406C18.3923 5.32272 18.3161 5.30217 18.2392 5.28223Z" fill="#22284F"/>
<path fill-rule="evenodd" clip-rule="evenodd" d="M8.293 5.67238C8.34303 5.39252 8.54935 5.16392 8.82726 5.04863C8.95417 4.99577 9.09416 4.96665 9.24265 4.96665H15.2662C15.9797 4.96665 16.6459 5.00734 17.2538 5.09271C17.4276 5.11685 17.5962 5.14477 17.761 5.17609C17.9249 5.20801 18.0846 5.24371 18.2395 5.28281C18.3164 5.30275 18.3926 5.3235 18.4672 5.34405C18.7662 5.43022 19.0441 5.53215 19.3005 5.64964C19.602 3.97826 19.2979 2.84028 18.2583 1.80981C17.112 0.675211 15.0433 0.189697 12.3961 0.189697H4.71082C4.17014 0.189697 3.70885 0.531392 3.62532 0.99656L0.42433 18.6325C0.361219 18.9813 0.670807 19.2961 1.07563 19.2961H5.8202L8.293 5.67238Z" fill="#28356A"/>
</svg>
