<svg width="47" height="14" viewBox="0 0 47 14" fill="none" xmlns="http://www.w3.org/2000/svg">
<path fill-rule="evenodd" clip-rule="evenodd" d="M12.0362 13.5401H8.03788L5.03963 3.63809C4.89732 3.1826 4.59516 2.77992 4.15068 2.59013C3.04145 2.11318 1.81914 1.73361 0.485718 1.54217V1.16094H6.9267C7.81565 1.16094 8.48236 1.73361 8.59348 2.39869L10.1491 9.54133L14.1455 1.16094H18.0327L12.0362 13.5401ZM20.2552 13.5401H16.4791L19.5885 1.16094H23.3646L20.2552 13.5401ZM28.2497 4.59039C28.3608 3.92365 29.0275 3.54242 29.8053 3.54242C31.0276 3.44671 32.3591 3.63814 33.4703 4.11344L34.137 1.44815C33.0258 1.06693 31.8035 0.875488 30.6943 0.875488C27.0293 0.875488 24.3625 2.59018 24.3625 4.96996C24.3625 6.78038 26.2515 7.73097 27.5849 8.30363C29.0275 8.87465 29.5831 9.25587 29.472 9.82689C29.472 10.6834 28.3608 11.0646 27.2516 11.0646C25.9181 11.0646 24.5847 10.7791 23.3644 10.3022L22.6976 12.9691C24.0311 13.4444 25.4737 13.6359 26.8071 13.6359C30.9165 13.7299 33.4703 12.0169 33.4703 9.44566C33.4703 6.20771 28.2497 6.01792 28.2497 4.59039ZM46.6859 13.5401L43.6876 1.16094H40.4671C39.8004 1.16094 39.1337 1.54217 38.9114 2.11318L33.3594 13.5401H37.2466L38.0225 11.7313H42.7987L43.2431 13.5401H46.6859ZM41.0226 4.49471L42.1318 9.1602H39.0224L41.0226 4.49471Z" fill="white"/>
</svg>
