<svg width="174" height="174" viewBox="0 0 174 174" fill="none" xmlns="http://www.w3.org/2000/svg">
<circle cx="87" cy="87" r="87" fill="#E96565"/>
<path d="M94.4103 62.8638C98.2914 63.6196 101.858 65.5141 104.654 68.3049C107.45 71.0956 109.349 74.6557 110.106 78.5294L94.4103 62.8638ZM94.4103 47C102.474 47.8941 109.993 51.4981 115.733 57.2203C121.474 62.9425 125.094 70.4428 126 78.4897L94.4103 47ZM122.026 110.138V122.036C122.031 123.14 121.804 124.234 121.361 125.246C120.918 126.258 120.267 127.166 119.452 127.913C118.636 128.66 117.674 129.228 116.625 129.582C115.577 129.936 114.466 130.067 113.364 129.968C101.137 128.642 89.3917 124.472 79.0724 117.792C69.4716 111.703 61.3318 103.579 55.2311 93.9966C48.5157 83.6502 44.3365 71.8705 43.0323 59.6117C42.933 58.515 43.0635 57.4097 43.4157 56.3661C43.7679 55.3225 44.3339 54.3635 45.0777 53.5503C45.8215 52.737 46.7269 52.0872 47.7361 51.6422C48.7453 51.1973 49.8363 50.967 50.9396 50.966H62.8603C64.7887 50.947 66.6582 51.6286 68.1203 52.8836C69.5825 54.1387 70.5375 55.8815 70.8074 57.7874C71.3105 61.595 72.2436 65.3335 73.5889 68.9317C74.1235 70.3512 74.2392 71.894 73.9223 73.3771C73.6054 74.8602 72.8691 76.2216 71.8008 77.2999L66.7544 82.3367C72.4109 92.2656 80.6477 100.487 90.5957 106.132L95.6421 101.096C96.7224 100.029 98.0864 99.2945 99.5724 98.9782C101.058 98.6619 102.604 98.7774 104.026 99.311C107.631 100.654 111.377 101.585 115.192 102.087C117.122 102.359 118.885 103.329 120.145 104.814C121.405 106.298 122.075 108.193 122.026 110.138Z" fill="white"/>
</svg>
