<svg width="15" height="14" viewBox="0 0 15 14" fill="none" xmlns="http://www.w3.org/2000/svg">
<path fill-rule="evenodd" clip-rule="evenodd" d="M11.7189 13.125C11.5945 13.125 11.4753 13.0789 11.3874 12.9969C11.2995 12.9148 11.2501 12.8035 11.2501 12.6875V1.3125C11.2501 1.19647 11.2995 1.08519 11.3874 1.00314C11.4753 0.921094 11.5945 0.875 11.7189 0.875C11.8432 0.875 11.9624 0.921094 12.0503 1.00314C12.1382 1.08519 12.1876 1.19647 12.1876 1.3125V12.6875C12.1876 12.8035 12.1382 12.9148 12.0503 12.9969C11.9624 13.0789 11.8432 13.125 11.7189 13.125ZM9.3751 7C9.3751 7.11603 9.32572 7.22731 9.23781 7.30936C9.1499 7.39141 9.03067 7.4375 8.90635 7.4375H3.47542L5.48823 9.31525C5.53181 9.35593 5.56638 9.40422 5.58997 9.45736C5.61356 9.51051 5.6257 9.56747 5.6257 9.625C5.6257 9.68253 5.61356 9.73949 5.58997 9.79264C5.56638 9.84578 5.53181 9.89407 5.48823 9.93475C5.44465 9.97543 5.39291 10.0077 5.33596 10.0297C5.27902 10.0517 5.21799 10.0631 5.15636 10.0631C5.09472 10.0631 5.03369 10.0517 4.97675 10.0297C4.9198 10.0077 4.86806 9.97543 4.82448 9.93475L2.01198 7.30975C1.96833 7.26911 1.93369 7.22083 1.91006 7.16768C1.88643 7.11453 1.87427 7.05755 1.87427 7C1.87427 6.94245 1.88643 6.88547 1.91006 6.83232C1.93369 6.77917 1.96833 6.73089 2.01198 6.69025L4.82448 4.06525C4.9125 3.9831 5.03188 3.93695 5.15636 3.93695C5.28083 3.93695 5.40021 3.9831 5.48823 4.06525C5.57625 4.1474 5.6257 4.25882 5.6257 4.375C5.6257 4.49118 5.57625 4.6026 5.48823 4.68475L3.47542 6.5625H8.90635C9.03067 6.5625 9.1499 6.60859 9.23781 6.69064C9.32572 6.77269 9.3751 6.88397 9.3751 7Z" fill="#878787"/>
</svg>
