<svg width="111" height="48" viewBox="0 0 111 48" fill="none" xmlns="http://www.w3.org/2000/svg">
<path d="M75.1968 36.7003C75.2422 36.5569 75.2729 36.4524 75.309 36.3492C77.5809 29.907 79.8547 23.47 82.1303 17.0385C82.2674 16.6984 82.435 16.3714 82.6311 16.0617C82.8327 15.6877 83.2158 15.4479 83.6393 15.4306C84.2696 15.4025 84.9039 15.4118 85.5343 15.4467C85.8993 15.4673 86.2304 15.668 86.4183 15.9826C86.6216 16.2759 86.7926 16.5904 86.9284 16.9206C88.9529 22.5964 90.9694 28.2758 92.9779 33.9588C93.269 34.7775 93.5481 35.6002 93.8312 36.4216C93.8593 36.5033 93.8766 36.5891 93.902 36.6815C92.8337 36.6815 91.7653 36.7351 90.7197 36.6628C90.0333 36.6145 89.6594 36.0558 89.4284 35.4448C89.0064 34.33 88.6004 33.2098 88.1998 32.087C88.1633 31.8997 87.9876 31.7734 87.7991 31.7989C85.618 31.8078 83.4368 31.8078 81.2556 31.7989C81.0018 31.7989 80.915 31.8967 80.8416 32.1138C80.4717 33.2112 80.0871 34.3045 79.7078 35.3992C79.3753 36.3586 78.9066 36.703 77.901 36.7097C77.0116 36.7056 76.1236 36.7003 75.1968 36.7003ZM84.6342 21.5191H84.486C83.7314 23.7675 82.9769 26.0159 82.2157 28.287H86.8897L84.6342 21.5191Z" fill="#010101"/>
<path d="M64.7859 28.6363V29.0811C64.7859 30.9784 64.7859 32.8757 64.7859 34.773C64.7879 34.9628 64.7786 35.1525 64.7579 35.3412C64.6764 36.046 64.2825 36.5337 63.5814 36.5913C62.7454 36.6596 61.9001 36.6074 61.0187 36.6074V17.302C61.0142 17.1455 61.0191 16.9889 61.0334 16.833C61.1336 16.0291 61.5676 15.5708 62.3688 15.4315C62.5661 15.3982 62.7658 15.3817 62.9658 15.3819C65.2119 15.3819 67.459 15.3819 69.707 15.3819C70.8554 15.3832 71.9678 15.5762 73.0001 16.0961C74.8443 17.034 75.8406 18.5682 76.1704 20.5754C76.4035 21.9691 76.3023 23.3985 75.8753 24.7452C75.2263 26.7885 73.792 27.9958 71.7235 28.4232C71.0246 28.555 70.3152 28.6227 69.6041 28.6255C68.1352 28.655 66.6662 28.6349 65.1973 28.6349L64.7859 28.6363ZM64.8006 24.9395C64.8441 24.9529 64.8889 24.9619 64.9342 24.9663C66.6702 24.9663 68.4063 24.9663 70.1423 24.9596C70.5911 24.959 71.028 24.8149 71.3896 24.5482C72.1281 24.0122 72.3885 23.2378 72.4873 22.3829C72.6863 20.6558 71.8797 18.9568 69.6095 19.0331C68.1325 19.0867 66.6529 19.0439 65.1746 19.0439C65.057 19.0439 64.9409 19.0559 64.8113 19.0626L64.8006 24.9395Z" fill="#010101"/>
<path d="M98.6016 36.6883C98.6016 36.5208 98.6016 36.3895 98.6016 36.2582C98.6016 33.7124 98.6016 31.1665 98.5842 28.6207C98.5823 28.4107 98.5261 28.2048 98.4213 28.0231C96.7066 25.128 94.9852 22.2356 93.2572 19.3459C92.488 18.0524 91.7215 16.7572 90.9576 15.4601C90.9082 15.3851 90.8655 15.294 90.7974 15.16H92.2663C92.8339 15.16 93.4028 15.1801 93.969 15.16C94.7275 15.1292 95.2363 15.4963 95.5995 16.1194C97.1442 18.7661 98.6879 21.4138 100.231 24.0623C100.29 24.1642 100.364 24.2593 100.458 24.4067C100.555 24.2593 100.626 24.1655 100.683 24.0637C102.226 21.4026 103.768 18.7407 105.308 16.0778C105.637 15.5151 106.119 15.1654 106.8 15.1654C107.801 15.1654 108.803 15.1654 109.804 15.1654C109.871 15.1705 109.937 15.179 110.002 15.1908C109.917 15.3422 109.848 15.4668 109.778 15.5928C107.382 19.717 104.984 23.8408 102.585 27.9642C102.426 28.2299 102.344 28.5357 102.351 28.8458C102.362 30.8557 102.358 32.8655 102.351 34.8754C102.351 36.0813 101.817 36.6454 100.615 36.687C99.9717 36.7071 99.3147 36.6883 98.6016 36.6883Z" fill="#010101"/>
<path fill-rule="evenodd" clip-rule="evenodd" d="M37.7175 31.1758L31.9972 44.5774L30.7026 47.6006H30.708C33.0386 48.0676 35.4384 48.0717 37.8411 47.6083C39.6968 47.1437 41.413 46.405 42.9405 45.4141C43.1327 45.2865 43.3202 45.1577 43.5071 45.0266L37.7175 31.1758Z" fill="#7BB958"/>
<path fill-rule="evenodd" clip-rule="evenodd" d="M16.2451 37.0615C16.6011 37.5617 16.9849 38.078 17.4048 38.6007C16.9849 38.078 16.6011 37.5617 16.2451 37.0615Z" fill="#7CBC56"/>
<path fill-rule="evenodd" clip-rule="evenodd" d="M25.3584 15.1875L25.3897 27.3342V27.3366L31.3869 29.2063L37.7175 31.1762L25.3584 15.1875Z" fill="#226188"/>
<path fill-rule="evenodd" clip-rule="evenodd" d="M25.3896 27.3379L31.3868 29.2076L25.3896 27.3379Z" fill="#7CBC56"/>
<path fill-rule="evenodd" clip-rule="evenodd" d="M25.354 15.187H25.355V15.1865H25.354V15.187Z" fill="#7CBC56"/>
<path fill-rule="evenodd" clip-rule="evenodd" d="M22.4001 0.221619C21.8418 0.314776 21.2765 0.440569 20.7224 0.59959C17.8672 1.41131 15.3101 3.0205 13.3225 5.25273C13.0534 5.55594 12.7885 5.87576 12.5389 6.20389L12.4603 6.31366C12.4118 6.37656 12.368 6.44242 12.3213 6.50591L25.3581 15.188L22.4001 0.221619Z" fill="#29A5BA"/>
<path fill-rule="evenodd" clip-rule="evenodd" d="M0.0831314 34.3869L12.8994 31.1768L2.03999 25.1133C0.0198542 28.7981 -0.157558 32.1405 0.0831314 34.3869Z" fill="#7BB958"/>
<path fill-rule="evenodd" clip-rule="evenodd" d="M40.439 20.7842L40.4397 20.7851L40.439 20.7842Z" fill="#7CBC56"/>
<path fill-rule="evenodd" clip-rule="evenodd" d="M0.0883299 34.4594L0.103114 34.5864L0.130909 34.7413C0.947597 39.5618 3.50115 42.5084 5.26226 44.0238L12.8999 31.1758L0.0830078 34.3859C0.0830078 34.409 0.0883299 34.4351 0.0883299 34.4594Z" fill="#68A855"/>
<path fill-rule="evenodd" clip-rule="evenodd" d="M5.79336 44.4588C5.82412 44.4813 5.85605 44.505 5.88266 44.5294L5.9554 44.5846C8.53675 46.5094 11.0187 47.749 15.3931 47.9792C15.6474 47.9934 15.9047 47.9994 16.1613 47.9994C16.6001 47.9994 17.0484 47.9792 17.4907 47.9412C16.3192 43.6328 13.0897 31.7881 12.8993 31.1805V31.1758L5.26172 44.0244C5.44918 44.1852 5.6266 44.33 5.79336 44.4588Z" fill="#5B9E54"/>
<path fill-rule="evenodd" clip-rule="evenodd" d="M17.4908 47.9412L17.495 47.9436C17.5553 47.9371 17.618 47.9329 17.6813 47.9276L17.8013 47.9151C17.8551 47.9092 17.9084 47.9038 17.9622 47.8979C20.6707 47.5822 22.8765 46.6358 24.3443 46.0039C24.6967 45.8532 25.0054 45.7203 25.2633 45.6218C22.2827 43.8096 19.8989 41.5632 18.0538 39.3885V39.3867C17.8285 39.1227 17.6144 38.858 17.4045 38.5981C16.9852 38.0736 16.6008 37.5574 16.2448 37.0572C16.0662 36.8062 15.8965 36.5599 15.7339 36.3184C15.5671 36.0758 15.4133 35.8396 15.2673 35.6076C15.0443 35.2593 14.8397 34.9246 14.6493 34.6042C14.5221 34.3918 14.4033 34.1847 14.2921 33.9859C14.0118 33.4917 13.7622 33.0514 13.5842 32.6598C12.8994 31.1823 12.9071 31.2001 12.8994 31.1758" fill="#5A9252"/>
<path fill-rule="evenodd" clip-rule="evenodd" d="M34.1108 2.93404C32.6666 1.89566 31.0782 1.11895 29.3958 0.626457C28.1533 0.20339 26.867 -0.00250607 25.5719 0.0111412L25.4968 0.00876758C24.5228 -0.0244607 23.5329 0.0366555 22.5465 0.193896C22.4997 0.20161 22.4524 0.211697 22.4004 0.219411L25.3537 15.1852L34.3178 3.0895C34.2498 3.03788 34.1835 2.98448 34.1108 2.93404Z" fill="#1E98B0"/>
<path fill-rule="evenodd" clip-rule="evenodd" d="M40.114 11.6006C39.871 10.6987 39.5404 9.80687 39.1311 8.94471C38.3606 7.33018 37.3334 5.87051 36.0708 4.60546C35.5297 4.06313 34.9389 3.55462 34.318 3.0918L25.3545 15.1881H25.3586L40.1288 11.657L40.114 11.6006Z" fill="#218DA5"/>
<path fill-rule="evenodd" clip-rule="evenodd" d="M40.7229 17.3428C40.7229 17.408 40.7188 17.4763 40.7188 17.5415C40.7188 17.4721 40.7229 17.4063 40.7229 17.3428Z" fill="#7CBC56"/>
<path fill-rule="evenodd" clip-rule="evenodd" d="M25.3899 27.335C25.3816 27.3373 25.3466 27.3498 25.3306 27.3557C25.3496 27.3498 25.3697 27.3445 25.3899 27.3373V27.335Z" fill="#7CBC56"/>
<path fill-rule="evenodd" clip-rule="evenodd" d="M25.3898 27.3379C25.3538 27.348 25.3378 27.3533 25.3307 27.3563C25.3218 27.3575 25.3189 27.3598 25.3307 27.3563C24.7009 27.5432 24.5631 27.5883 12.8994 31.1793L37.7176 31.1781L31.387 29.2076L25.3898 27.3379Z" fill="#95C65B"/>
<path fill-rule="evenodd" clip-rule="evenodd" d="M25.3306 27.3563C25.3377 27.3533 25.3585 27.3474 25.3899 27.3379C25.3697 27.3444 25.3496 27.3504 25.3306 27.3563Z" fill="#7CBC56"/>
<path fill-rule="evenodd" clip-rule="evenodd" d="M9.40383 18.1181C9.39201 18.124 9.38018 18.13 9.36894 18.1353C6.27073 19.7113 3.76922 22.0111 2.31385 24.6326L2.29433 24.6682C2.20681 24.8172 2.12283 24.9661 2.04004 25.1156L12.9 31.1768L9.40383 18.1181Z" fill="#83BD5C"/>
<path fill-rule="evenodd" clip-rule="evenodd" d="M25.3588 15.185L12.322 6.50293C10.5124 9.01166 9.4875 11.9607 9.36036 15.0515C9.36036 15.0657 9.27993 16.2293 9.39998 18.0996C9.39998 18.1067 9.39998 18.1103 9.40412 18.1162C9.72464 17.9554 10.0452 17.8023 10.3616 17.6676V17.6593V17.6676C12.6425 16.6856 14.8193 16.0703 16.8939 15.6929C17.144 15.6472 17.3977 15.6057 17.6461 15.5665C18.5261 15.4306 19.4119 15.3298 20.2955 15.2586C22.0252 15.1215 23.7828 15.153 25.3588 15.1868V15.185Z" fill="#25B3C4"/>
<path fill-rule="evenodd" clip-rule="evenodd" d="M25.3898 27.3324L25.3585 15.1875L12.8994 31.1762C24.5631 27.5852 24.7009 27.5371 25.3307 27.3532C25.2946 27.3633 25.3816 27.3348 25.3898 27.3324Z" fill="#9EC95B"/>
<path fill-rule="evenodd" clip-rule="evenodd" d="M25.3903 27.3332L25.3589 15.1865V15.1883L25.3903 27.3332Z" fill="#7CBC56"/>
<path fill-rule="evenodd" clip-rule="evenodd" d="M12.8998 31.1725L25.3541 15.1844V15.1826C23.7822 15.1488 22.0253 15.1168 20.2949 15.2544C19.412 15.3256 18.5261 15.4265 17.6461 15.5618C17.3972 15.6015 17.1441 15.6431 16.8933 15.6888C14.8194 16.0661 12.6419 16.6815 10.3616 17.6629V17.6552V17.6629C10.0452 17.7982 9.72467 17.9512 9.40355 18.1121H9.39941L9.40355 18.1138L12.8998 31.1725Z" fill="#91C45A"/>
<path fill-rule="evenodd" clip-rule="evenodd" d="M15.2671 35.6123C15.4142 35.8449 15.5679 36.0805 15.7358 36.3232C15.5679 36.0805 15.4142 35.8449 15.2671 35.6123Z" fill="#7CBC56"/>
<path fill-rule="evenodd" clip-rule="evenodd" d="M14.292 33.9844C14.4035 34.1832 14.5234 34.3902 14.6504 34.6027C14.5234 34.3902 14.4035 34.1832 14.292 33.9844Z" fill="#7CBC56"/>
<path fill-rule="evenodd" clip-rule="evenodd" d="M14.6494 34.6055C14.8398 34.9253 15.0445 35.2605 15.2674 35.6083C15.0445 35.2605 14.8398 34.9253 14.6494 34.6055Z" fill="#7CBC56"/>
<path fill-rule="evenodd" clip-rule="evenodd" d="M13.5845 32.6602C13.7737 33.0435 14.012 33.492 14.2923 33.9863C14.012 33.492 13.7737 33.0435 13.5845 32.6602Z" fill="#7CBC56"/>
<path fill-rule="evenodd" clip-rule="evenodd" d="M13.5842 32.6611C13.1295 31.7592 12.9112 31.205 12.8994 31.1836C12.9112 31.205 13.1295 31.7592 13.5842 32.6611Z" fill="#7CBC56"/>
<path fill-rule="evenodd" clip-rule="evenodd" d="M37.7175 31.1758C36.1977 31.7852 34.6648 32.4112 33.1391 33.0401C30.841 33.9853 28.537 34.9484 26.2448 35.9138C24.7173 36.5576 23.1975 37.2026 21.6848 37.8463C20.9278 38.1662 20.1756 38.486 19.4281 38.8058C19.4239 38.8082 19.4204 38.8082 19.4162 38.8094L18.0537 39.3897C19.8994 41.5643 22.2826 43.809 25.2632 45.6229C26.4737 46.3332 28.0497 46.9206 30.3348 47.5175L30.4773 47.5549C30.4809 47.5549 30.485 47.5567 30.4891 47.5567L30.7026 47.6006C30.734 47.606 30.6713 47.5947 30.7026 47.6006L31.9971 44.5774L37.7175 31.1758Z" fill="#83BD5C"/>
<path fill-rule="evenodd" clip-rule="evenodd" d="M26.2451 35.9123C28.5367 34.9469 30.8413 33.9839 33.1394 33.0381C30.8413 33.9839 28.5367 34.9469 26.2451 35.9123Z" fill="#7CBC56"/>
<path fill-rule="evenodd" clip-rule="evenodd" d="M12.8994 31.177V31.1835C12.9112 31.2072 13.1295 31.7591 13.5842 32.661C13.7735 33.0437 14.0112 33.4929 14.2915 33.9871C14.4027 34.1859 14.5221 34.393 14.6487 34.6054C14.8391 34.9252 15.0443 35.2605 15.2667 35.6088C15.4133 35.8408 15.5671 36.0769 15.7339 36.3196C15.8965 36.5611 16.0662 36.8074 16.2448 37.0584C16.6002 37.5586 16.9846 38.0748 17.4045 38.5993C17.6103 38.8592 17.8279 39.1239 18.0532 39.3879C18.5051 39.1974 18.9604 39.0022 19.4158 38.8094C19.4199 38.8082 19.424 38.8082 19.4276 38.8058C20.1757 38.486 20.9273 38.1662 21.6843 37.8463C23.1976 37.2026 24.7168 36.5593 26.2444 35.9138C28.5365 34.9484 30.8405 33.9853 33.1386 33.0401C34.6649 32.4112 36.1972 31.7852 37.717 31.1758L12.8994 31.177Z" fill="#91C45A"/>
<path fill-rule="evenodd" clip-rule="evenodd" d="M40.601 14.3509C40.5282 13.4953 40.3786 12.6313 40.1616 11.781L40.1291 11.6582L25.3589 15.1893V15.1911L40.4395 20.7865L40.4419 20.79C40.4744 20.4779 40.5052 20.1901 40.5418 19.8982C40.6211 19.2639 40.6926 18.2617 40.7187 17.5426C40.7187 17.4773 40.7234 17.4091 40.7234 17.3438C40.747 16.303 40.7027 15.3003 40.601 14.3509Z" fill="#20839F"/>
<path fill-rule="evenodd" clip-rule="evenodd" d="M49.931 31.3984C49.8169 29.9108 49.5242 28.4802 49.0688 27.1416L37.7168 31.1765L49.4639 36.1945C49.7578 34.9936 50.0783 33.293 49.931 31.3984Z" fill="#5B9E54"/>
<path fill-rule="evenodd" clip-rule="evenodd" d="M49.4639 36.1938L37.7168 31.1758L43.5016 45.0231C47.6194 42.0812 48.9216 38.1145 48.9369 38.0712C49.0966 37.5544 49.2232 37.1118 49.3338 36.6905H49.3373L49.3775 36.5297C49.3852 36.4982 49.3964 36.4644 49.4041 36.4324L49.4083 36.4128C49.4242 36.341 49.4443 36.268 49.4639 36.1938Z" fill="#68A855"/>
<path fill-rule="evenodd" clip-rule="evenodd" d="M25.3584 15.1875L37.7175 31.1762C37.7335 31.1424 39.2297 28.5168 40.439 20.7847L25.3584 15.1875Z" fill="#267491"/>
<path fill-rule="evenodd" clip-rule="evenodd" d="M48.9905 26.9096C47.5612 23.0308 44.9 20.4746 42.9485 19.1324C42.0248 18.5023 41.2382 18.0934 40.7078 17.8567C40.7119 17.7517 40.716 17.6466 40.719 17.541C40.6924 18.2602 40.6208 19.2624 40.5416 19.8967C40.5049 20.1886 40.47 20.4746 40.4393 20.7867C39.2299 28.5188 37.7337 31.1462 37.7178 31.1782L49.0692 27.144C49.0414 27.0668 49.0178 26.9873 48.9905 26.9096Z" fill="#5A9252"/>
</svg>
