<svg width="157" height="218" viewBox="0 0 157 218" fill="none" xmlns="http://www.w3.org/2000/svg">
<path d="M0.650146 41.4114C0.654705 41.1506 0.654705 41.0362 0.654705 41.0088C0.654705 41.0591 0.650146 41.4114 0.650146 41.4114Z" fill="#D9FFFF"/>
<path d="M0.650146 41.4114C0.654705 41.1506 0.654705 41.0362 0.654705 41.0088C0.654705 41.0591 0.650146 41.4114 0.650146 41.4114Z" fill="#D9FFFF"/>
<path d="M155.998 43.1272C155.998 43.1272 156.003 42.7749 156.003 42.7246C156.003 42.7521 156.003 42.8664 155.998 43.1272Z" fill="#D9FFFF"/>
<path d="M155.998 43.1272C155.998 43.1272 156.003 42.7749 156.003 42.7246C156.003 42.7521 156.003 42.8664 155.998 43.1272Z" fill="#D9FFFF"/>
<path d="M78.9208 0C60.6899 19.2509 31.7001 34.938 0.740756 41.4983C0.717962 43.5616 0.590313 54.9849 0.00677805 107.646C-0.772789 177.897 65.9326 212.666 76.2904 218C86.3883 213.439 154.393 179.608 155.168 109.357C155.751 56.6959 155.879 45.2726 155.902 43.2093C125.102 35.9673 96.7232 19.6489 78.9208 0Z" fill="white"/>
<path d="M78.6523 12.6953C60.818 28.8216 36.1727 41.4298 9.12035 48.2098L8.45932 107.728C8.15843 134.962 18.8262 159.671 40.1708 181.173C54.1939 195.3 68.9829 204.102 76.4868 208.064C76.8105 207.903 77.1661 207.721 77.5171 207.538L78.8027 12.828C78.7571 12.7868 78.7024 12.7411 78.6523 12.6953Z" fill="#E96565"/>
<path d="M78.8073 12.8374L77.5217 207.547C85.3812 203.53 99.6733 195.209 113.391 181.987C135.205 160.961 146.42 136.495 146.721 109.261L147.382 49.7426C120.562 42.3817 96.2678 29.2885 78.8073 12.8374Z" fill="#D84A4A"/>
<path d="M46.8589 98.4185L46.5535 144.528C46.5216 149.661 109.279 150.073 109.315 144.94L109.621 98.8302L46.8589 98.4185ZM81.2556 123.136L81.169 136.207C81.1553 137.95 79.7284 139.382 77.9869 139.372C76.2135 139.359 74.8094 137.904 74.8185 136.165L74.9051 123.063C72.2245 121.837 70.3508 119.11 70.3736 115.981C70.4009 111.704 73.9113 108.273 78.192 108.305C82.4728 108.332 85.9056 111.809 85.8783 116.086C85.8555 119.239 83.9772 121.942 81.2556 123.136Z" fill="white"/>
<path d="M104.15 95.5086L97.7953 95.4674L97.8135 92.3611C97.8865 81.6011 89.179 72.7899 78.411 72.7213C67.6383 72.6527 58.8215 81.3449 58.7485 92.1049L58.7303 95.2112L52.3752 95.17L52.3935 92.0637C52.4892 77.804 64.1782 66.2845 78.452 66.376C92.7258 66.4721 104.26 78.1471 104.164 92.4023L104.15 95.5086Z" fill="white"/>
</svg>
