<svg width="150" height="200" viewBox="0 0 150 200" fill="none" xmlns="http://www.w3.org/2000/svg">
<path d="M0 35.2175C0 34.9653 0.00252457 34.8568 0.00252457 34.8291C0.00252457 34.877 0 35.2175 0 35.2175Z" fill="#D9FFFF"/>
<path d="M0 35.2175C0 34.9653 0.00252457 34.8568 0.00252457 34.8291C0.00252457 34.877 0 35.2175 0 35.2175Z" fill="#D9FFFF"/>
<path d="M149.998 35.8845C149.998 35.8845 150 35.544 150 35.4961C150 35.5238 150 35.6348 149.998 35.8845Z" fill="#D9FFFF"/>
<path d="M149.998 35.8845C149.998 35.8845 150 35.544 150 35.4961C150 35.5238 150 35.6348 149.998 35.8845Z" fill="#D9FFFF"/>
<path d="M75.2776 0C58.6735 17.77 32.1781 32.3341 3.82467 38.5391C3.8171 40.4308 3.76913 50.9137 3.55202 99.2244C3.26674 163.673 64.6542 195.167 74.1845 200C83.4194 195.752 145.582 164.309 145.87 99.86C146.087 51.5468 146.132 41.0665 146.142 39.1747C117.847 32.7175 91.7202 17.9188 75.2776 0Z" fill="white"/>
<path d="M75.1284 6.99023C58.0118 22.6793 34.296 35.0086 8.21969 41.7306L7.96218 99.2151C7.84353 125.518 18.3028 149.312 39.0472 169.942C52.6774 183.495 67.0094 191.902 74.2827 195.683C74.5957 195.524 74.9391 195.345 75.2774 195.17V7.12392C75.2269 7.07852 75.1764 7.03564 75.1284 6.99023Z" fill="#E96565"/>
<path d="M75.2783 7.12402V195.168C82.8394 191.238 96.5857 183.114 109.749 170.257C130.678 149.816 141.349 126.114 141.465 99.813L141.723 42.3285C115.78 35.3946 92.2409 22.9014 75.2783 7.12402Z" fill="#D84A4A"/>
<path d="M127.524 64.7417C107.671 67.8013 80.6374 85.8916 63.5839 107.644C61.1931 97.3885 50.4536 88.0255 44.8339 85.9774L27.8132 103.071C38.4417 107.856 50.0547 121.416 51.5947 135.297L68.5977 137.93C75.7675 123.782 94.2827 89.9375 131.116 71.7387C130.409 68.9666 127.809 65.1377 127.524 64.7417Z" fill="white"/>
</svg>
